<?xml version="1.0" encoding="utf-8"?>
<!-- Generator: Adobe Illustrator 26.0.1, SVG Export Plug-In . SVG Version: 6.00 Build 0)  -->
<svg version="1.1" xmlns="http://www.w3.org/2000/svg" xmlns:xlink="http://www.w3.org/1999/xlink" x="0px" y="0px"
	 viewBox="0 0 1024 1024" style="enable-background:new 0 0 1024 1024;" xml:space="preserve">
<style type="text/css">
	.st0{fill:#07D6A0;}
	.st1{opacity:0.5;fill:#07D6A0;}
	.st2{fill:#07D6A0;fill-opacity:0.7;}
	.st3{fill:#07D6A0;fill-opacity:0.9;}
	.st4{fill:#07D6A0;fill-opacity:0.5;}
</style>
<g id="body">
</g>
<g id="wing">
</g>
<g id="feather1">
</g>
<g id="feather2">
</g>
<g id="feather3">
</g>
<g id="feather4">
</g>
<g id="strike1">
</g>
<g id="strike2">
</g>
<g id="strike3">
</g>
<g id="f1">
</g>
<g id="f2">
</g>
<g id="f3">
</g>
<g id="f4">
</g>
<g id="f5">
	<g>
		<g>
			<polyline class="st0" points="469.8,656.3 174.1,899.9 728.7,804.2 945.1,362.6 604.8,457.6 690.1,474.8 584.9,561.5 			"/>
			<polygon class="st1" points="358.1,748.3 84,728.8 174.1,899.9 			"/>
			<polygon class="st1" points="925.3,402.9 985.3,437.1 883.5,488.3 			"/>
		</g>
		<g>
			<polygon class="st0" points="364.1,258.9 577.9,348.7 581.4,715.3 472.5,670.4 472.5,426 364.1,381.1 			"/>
		</g>
		<polygon class="st2" points="472.5,670.4 364.1,625.5 364.1,503.3 472.5,548.2 		"/>
		<polygon class="st2" points="364.1,503.3 255.9,458.4 255.9,336.2 364.1,381.1 		"/>
		<polygon class="st2" points="255.9,336.2 147.5,291.3 147.5,169 255.9,213.9 		"/>
		<polygon class="st3" points="364.1,381.1 255.9,336.2 255.9,213.9 364.1,258.8 		"/>
		<polygon class="st3" points="472.5,548.2 364.1,503.3 364.1,381.1 472.5,426 		"/>
		<polygon class="st4" points="364.1,625.5 255.9,580.6 255.9,458.4 364.1,503.3 		"/>
		<polygon class="st4" points="255.9,458.4 147.5,413.5 147.5,291.3 255.9,336.2 		"/>
		<polygon class="st4" points="147.5,291.3 39.9,246.4 38.7,124.1 147.5,169 		"/>
		<polygon class="st2" points="472.5,670.4 364.1,625.5 364.1,503.3 472.5,548.2 		"/>
	</g>
</g>
<g id="f6">
</g>
<g id="f7">
</g>
<g id="f8">
</g>
</svg>
