<?xml version="1.0" encoding="utf-8"?>
<!-- Generator: Adobe Illustrator 26.0.1, SVG Export Plug-In . SVG Version: 6.00 Build 0)  -->
<svg version="1.1" id="Layer_1" xmlns="http://www.w3.org/2000/svg" xmlns:xlink="http://www.w3.org/1999/xlink" x="0px" y="0px"
	 viewBox="0 0 512 70.2" style="enable-background:new 0 0 512 70.2;" xml:space="preserve">
<g>
	<g>
		<path d="M26.3,46.5h-1.1c-0.3,0.7-0.7,1.4-1.2,2c-0.5,0.6-1.1,1.2-1.9,1.7c-0.8,0.5-1.7,0.9-2.7,1.2c-1.1,0.3-2.3,0.4-3.8,0.4
			c-1.9,0-3.7-0.3-5.3-1c-1.6-0.7-3.1-1.7-4.3-3.1c-1.2-1.3-2.2-3-2.9-5c-0.7-2-1-4.2-1-6.7V35c0-2.5,0.4-4.7,1.1-6.7
			c0.7-2,1.7-3.6,3-5c1.3-1.3,2.7-2.4,4.4-3.1c1.7-0.7,3.5-1.1,5.3-1.1c2.5,0,4.5,0.5,5.9,1.4c1.5,0.9,2.6,2.3,3.4,4h1.1V7.4h7.9V51
			h-7.9V46.5z M18.1,44.4c2.5,0,4.4-0.8,6-2.3c1.5-1.6,2.3-3.6,2.3-6.1v-0.7c0-2.5-0.8-4.6-2.3-6.1c-1.5-1.6-3.5-2.3-6-2.3
			c-2.5,0-4.4,0.8-6,2.3c-1.5,1.5-2.3,3.6-2.3,6.2v0.7c0,2.6,0.8,4.7,2.3,6.2C13.6,43.7,15.6,44.4,18.1,44.4z"/>
		<path d="M64.2,38.1c0,0.9,0.3,1.8,0.7,2.5c0.4,0.8,0.9,1.4,1.6,2c0.7,0.6,1.5,1,2.4,1.3c0.9,0.3,1.8,0.5,2.8,0.5
			c2,0,3.4-0.3,4.5-1c1-0.7,1.8-1.5,2.2-2.5l6.7,3.7c-0.4,0.8-0.9,1.6-1.6,2.5C82.9,48,82,48.8,81,49.5c-1.1,0.7-2.3,1.3-3.9,1.7
			c-1.5,0.5-3.3,0.7-5.3,0.7c-2.3,0-4.4-0.4-6.4-1.1c-1.9-0.7-3.6-1.8-5-3.2c-1.4-1.4-2.5-3.1-3.2-5.2c-0.8-2-1.2-4.3-1.2-6.9v-0.4
			c0-2.4,0.4-4.5,1.2-6.5c0.8-2,1.9-3.6,3.3-5c1.4-1.4,3.1-2.4,5-3.2c1.9-0.8,3.9-1.2,6.1-1.2c2.7,0,4.9,0.5,6.9,1.4
			c1.9,0.9,3.5,2.1,4.7,3.6c1.2,1.4,2.2,3,2.7,4.7c0.6,1.7,0.9,3.4,0.9,5v4.2H64.2z M71.6,26.3c-2,0-3.6,0.5-4.9,1.5
			c-1.2,1-2.1,2.2-2.4,3.5h14.6c-0.2-1.5-1-2.7-2.3-3.6C75.2,26.8,73.6,26.3,71.6,26.3z"/>
		<path d="M116.6,63.5h-7.9V20.1h7.9v4.5h1.1c0.8-1.7,2-3,3.6-4c1.6-0.9,3.6-1.4,6-1.4c1.8,0,3.6,0.4,5.2,1.1
			c1.6,0.7,3.1,1.7,4.3,3.1c1.2,1.4,2.2,3,2.9,5c0.7,2,1.1,4.2,1.1,6.7v1.1c0,2.5-0.4,4.8-1.1,6.7c-0.7,2-1.7,3.6-2.9,5
			c-1.2,1.4-2.6,2.4-4.3,3.1c-1.6,0.7-3.4,1-5.3,1c-1.4,0-2.6-0.1-3.7-0.4c-1-0.3-1.9-0.7-2.7-1.2c-0.8-0.5-1.4-1.1-1.9-1.7
			c-0.5-0.6-1-1.3-1.3-2h-1.1V63.5z M124.8,44.4c2.5,0,4.4-0.8,6-2.3c1.5-1.5,2.3-3.6,2.3-6.2v-0.7c0-2.6-0.8-4.7-2.3-6.2
			c-1.5-1.5-3.5-2.3-6-2.3c-2.5,0-4.4,0.8-6,2.3c-1.5,1.6-2.3,3.6-2.3,6.1v0.7c0,2.5,0.8,4.6,2.3,6.1
			C120.4,43.6,122.4,44.4,124.8,44.4z"/>
		<path d="M184.4,20.1h7.9V51h-7.9v-4.5h-1.1c-1.4,3.6-4.3,5.4-8.9,5.4c-1.5,0-3-0.2-4.3-0.7c-1.3-0.5-2.5-1.3-3.5-2.3
			c-1-1-1.8-2.3-2.3-3.9c-0.6-1.6-0.8-3.4-0.8-5.5V20.1h7.9v17.7c0,2.2,0.5,3.9,1.6,5.1c1,1.2,2.6,1.8,4.7,1.8
			c2.4,0,4.1-0.8,5.2-2.3c1.1-1.5,1.7-3.6,1.7-6.2V20.1z"/>
		<path d="M223.1,51h-7.9V7.4h7.9v17.2h1.1c0.8-1.7,2-3,3.6-4c1.6-0.9,3.6-1.4,6-1.4c1.8,0,3.6,0.4,5.2,1.1c1.6,0.7,3.1,1.7,4.3,3.1
			c1.2,1.4,2.2,3,2.9,5c0.7,2,1.1,4.2,1.1,6.7v1.1c0,2.5-0.4,4.8-1.1,6.7c-0.7,2-1.7,3.6-2.9,5c-1.2,1.4-2.6,2.4-4.3,3.1
			c-1.6,0.7-3.4,1-5.3,1c-1.4,0-2.6-0.1-3.7-0.4c-1-0.3-1.9-0.7-2.7-1.2c-0.8-0.5-1.4-1.1-1.9-1.7c-0.5-0.6-1-1.3-1.3-2h-1.1V51z
			 M231.3,44.4c2.5,0,4.4-0.8,6-2.3c1.5-1.5,2.3-3.6,2.3-6.2v-0.7c0-2.6-0.8-4.7-2.3-6.2c-1.5-1.5-3.5-2.3-6-2.3s-4.4,0.8-6,2.3
			c-1.5,1.6-2.3,3.6-2.3,6.1v0.7c0,2.5,0.8,4.6,2.3,6.1C226.9,43.6,228.9,44.4,231.3,44.4z"/>
		<path d="M289.8,46c0,0.8-0.2,1.6-0.5,2.3c-0.3,0.7-0.7,1.4-1.3,1.9c-0.5,0.5-1.2,0.9-1.9,1.2c-0.7,0.3-1.5,0.5-2.3,0.5
			c-0.8,0-1.6-0.2-2.3-0.5c-0.7-0.3-1.3-0.7-1.9-1.2c-0.5-0.5-1-1.1-1.3-1.9S278,46.8,278,46c0-0.8,0.2-1.6,0.5-2.3
			c0.3-0.7,0.7-1.3,1.3-1.9c0.5-0.5,1.2-0.9,1.9-1.2c0.7-0.3,1.5-0.5,2.3-0.5c0.8,0,1.5,0.2,2.3,0.5c0.7,0.3,1.4,0.7,1.9,1.2
			c0.5,0.5,1,1.1,1.3,1.9C289.7,44.4,289.8,45.1,289.8,46z"/>
	</g>
	<g>
		<path d="M353.5,39.3c0,3.5-1.6,6.4-4.7,8.7c-2.8,2-6.1,3-9.7,3c-2.4,0-4.7-0.5-6.9-1.4c-2.4-1-4.3-2.5-5.5-4.3
			c-0.3-0.4-0.4-0.8-0.4-1.2c0-0.5,0.2-1,0.6-1.4c0.4-0.4,0.9-0.6,1.4-0.6c0.5,0,1,0.3,1.5,0.8c0.2,0.3,0.6,0.7,1.1,1.3
			c2.1,1.9,4.8,2.9,8.2,2.9c2.5,0,4.8-0.7,7-2c2.4-1.5,3.6-3.5,3.6-5.9s-1.2-4.3-3.6-5.9c-2.1-1.3-4.4-2-7-2c-3,0-5.7-0.8-8.1-2.5
			c-2.6-1.9-3.9-4.3-3.9-7.2s1.3-5.3,3.9-7.2c2.4-1.7,5-2.5,8.1-2.5c1.9,0,3.8,0.4,5.7,1.2c2,0.8,3.5,2,4.5,3.5
			c0.3,0.4,0.5,0.8,0.5,1.2c0,0.5-0.2,1-0.6,1.4c-0.4,0.4-0.9,0.6-1.4,0.6c-0.5,0-1-0.3-1.5-0.8c-2-2.1-4.4-3.1-7.1-3.1
			c-1.9,0-3.7,0.5-5.3,1.5c-1.9,1.1-2.8,2.6-2.8,4.4c0,1.8,0.9,3.3,2.8,4.4c1.6,1,3.4,1.5,5.3,1.5c3.7,0,6.9,1,9.7,3
			C351.9,32.9,353.5,35.8,353.5,39.3z"/>
		<path d="M392.1,23.7c0,3.2-1.1,6-3.4,8.3c-2.3,2.3-5,3.4-8.3,3.4h-9.1v13.7c0,1.3-0.7,2-1.9,2c-1.3,0-1.9-0.7-1.9-1.9V14
			c0-0.5,0.2-1,0.6-1.4c0.4-0.4,0.8-0.6,1.4-0.6h11c3.2,0,6,1.1,8.3,3.4C391,17.8,392.1,20.5,392.1,23.7z M388.2,23.7
			c0-2.1-0.8-4-2.3-5.5c-1.5-1.5-3.4-2.3-5.5-2.3h-9.1v15.6h9.1c2.1,0,4-0.8,5.5-2.3C387.5,27.7,388.2,25.9,388.2,23.7z"/>
		<path d="M430.8,49.2c0,1.2-0.7,1.9-2,1.9c-0.9,0-1.5-0.5-1.8-1.4l-3.5-10.3h-12.8l-3.4,10.3c-0.3,0.9-0.9,1.4-1.8,1.4
			c-1.4,0-2-0.6-2-1.8c0-0.2,0-0.5,0.1-0.7l11.6-34.8c0.4-1.1,1-1.6,1.9-1.6c0.9,0,1.6,0.5,1.9,1.6l11.6,34.8
			C430.8,48.7,430.8,49,430.8,49.2z M422.2,35.4l-5.1-15.3l-5.1,15.3H422.2z"/>
		<path d="M469.4,43.9c0,0.4-0.1,0.8-0.4,1.2c-1.2,1.7-2.9,3.2-4.9,4.2c-2.1,1.1-4.2,1.6-6.3,1.6c-4.7,0-8.6-2.1-11.6-6.4
			c-2.7-3.8-4.1-8.2-4.1-13.1c0-4.9,1.4-9.3,4.1-13.1c3-4.3,6.9-6.4,11.6-6.4c2.1,0,4.2,0.5,6.3,1.6c2.1,1.1,3.7,2.5,4.9,4.2
			c0.3,0.4,0.5,0.8,0.4,1.2c0,0.5-0.2,1-0.6,1.4c-0.4,0.4-0.9,0.6-1.4,0.6c-0.3,0-0.7-0.2-1.2-0.5c-0.5-0.3-0.7-0.6-0.8-0.9
			c0,0-0.2-0.2-0.5-0.6c-2.1-2.1-4.5-3.2-7.1-3.2c-2.4,0-4.6,0.9-6.6,2.8c-1.8,1.6-3.1,3.7-4,6.2c-0.7,2.1-1.1,4.3-1.1,6.6
			c0,2.4,0.4,4.6,1.1,6.6c0.9,2.5,2.2,4.5,4,6.2c2,1.9,4.2,2.8,6.6,2.8c2.6,0,5-1.1,7.1-3.2c0.2-0.1,0.3-0.3,0.5-0.6
			c0-0.3,0.3-0.6,0.8-0.9c0.5-0.3,0.9-0.5,1.2-0.5c0.5,0,1,0.2,1.4,0.6C469.2,43,469.4,43.4,469.4,43.9z"/>
		<path d="M508.1,49.1c0,1.3-0.7,1.9-1.9,1.9h-20.8c-0.5,0-1-0.2-1.4-0.6c-0.4-0.4-0.6-0.8-0.6-1.4V14c0-0.5,0.2-1,0.6-1.4
			c0.4-0.4,0.8-0.6,1.4-0.6h20.8c1.3,0,1.9,0.6,1.9,1.9c0,1.3-0.7,1.9-1.9,1.9h-18.8v13.6h18.8c1.3,0,1.9,0.6,1.9,1.9
			c0,1.3-0.7,1.9-1.9,1.9h-18.8v13.7h18.8C507.4,47.1,508.1,47.8,508.1,49.1z"/>
	</g>
</g>
</svg>
