<?xml version="1.0" encoding="utf-8"?>
<!-- Generator: Adobe Illustrator 26.0.1, SVG Export Plug-In . SVG Version: 6.00 Build 0)  -->
<svg version="1.1" id="Layer_1" xmlns="http://www.w3.org/2000/svg" xmlns:xlink="http://www.w3.org/1999/xlink" x="0px" y="0px"
	 viewBox="0 0 1024 153.9" style="enable-background:new 0 0 1024 153.9;" xml:space="preserve">
<style type="text/css">
	.st0{fill:#07D6A0;}
</style>
<g>
	<g>
		<path fill="currentColor" d="M15.5,57.2c2.3-4.5,5.5-8,9.5-10.4c4-2.4,8.5-3.6,13.4-3.6c3.7,0,7.3,0.8,10.7,2.4c3.4,1.6,6.1,3.8,8.1,6.5V24.8H72v77
			H57.3v-8.5c-1.8,2.8-4.3,5.1-7.6,6.9c-3.3,1.7-7,2.6-11.3,2.6c-4.9,0-9.3-1.3-13.3-3.7c-4-2.5-7.2-6-9.5-10.6
			c-2.3-4.5-3.5-9.8-3.5-15.7C12,66.9,13.2,61.7,15.5,57.2z M55.3,63.8c-1.4-2.5-3.3-4.5-5.6-5.8c-2.4-1.4-4.9-2-7.6-2
			c-2.7,0-5.2,0.7-7.5,2c-2.3,1.3-4.1,3.2-5.6,5.8c-1.4,2.5-2.1,5.5-2.1,9c0,3.5,0.7,6.5,2.1,9.1c1.4,2.6,3.3,4.6,5.6,6
			c2.3,1.4,4.8,2.1,7.4,2.1c2.7,0,5.2-0.7,7.6-2c2.4-1.4,4.2-3.3,5.6-5.8c1.4-2.5,2.1-5.6,2.1-9.1C57.4,69.4,56.7,66.4,55.3,63.8z"
			/>
		<path fill="currentColor" d="M170.7,77.3h-42.1c0.3,4.2,1.8,7.4,4.4,9.8c2.6,2.4,5.7,3.5,9.5,3.5c5.4,0,9.3-2.3,11.6-7h15.7
			c-1.7,5.6-4.9,10.1-9.6,13.7c-4.7,3.6-10.5,5.4-17.4,5.4c-5.6,0-10.5-1.2-14.9-3.7c-4.4-2.5-7.8-5.9-10.3-10.5
			c-2.5-4.5-3.7-9.7-3.7-15.6c0-6,1.2-11.2,3.6-15.7s5.8-8,10.2-10.4c4.4-2.4,9.4-3.6,15.1-3.6c5.5,0,10.4,1.2,14.7,3.5
			c4.3,2.4,7.7,5.7,10.1,10s3.6,9.3,3.6,14.9C171.1,73.8,170.9,75.7,170.7,77.3z M156,67.5c-0.1-3.7-1.4-6.7-4.1-9
			c-2.6-2.3-5.9-3.4-9.7-3.4c-3.6,0-6.6,1.1-9.1,3.3c-2.5,2.2-4,5.2-4.5,9.1H156z"/>
		<path fill="currentColor" d="M235.2,45.8c3.3-1.8,7.1-2.7,11.3-2.7c4.9,0,9.4,1.2,13.4,3.6c4,2.4,7.1,5.9,9.5,10.4c2.3,4.5,3.5,9.7,3.5,15.6
			c0,5.9-1.2,11.1-3.5,15.7s-5.5,8.1-9.5,10.6c-4,2.5-8.4,3.7-13.4,3.7c-4.2,0-8-0.9-11.2-2.6c-3.2-1.7-5.8-3.9-7.9-6.6v35.7h-14.6
			V44.1h14.6v8.3C229.4,49.8,231.9,47.6,235.2,45.8z M255.8,63.7c-1.4-2.5-3.3-4.5-5.6-5.8c-2.3-1.3-4.8-2-7.5-2
			c-2.6,0-5.1,0.7-7.4,2c-2.3,1.4-4.2,3.3-5.6,5.9c-1.4,2.6-2.1,5.6-2.1,9.1c0,3.5,0.7,6.5,2.1,9c1.4,2.6,3.3,4.5,5.6,5.9
			c2.3,1.4,4.8,2,7.4,2c2.7,0,5.2-0.7,7.5-2.1c2.3-1.4,4.2-3.4,5.6-5.9c1.4-2.6,2.1-5.6,2.1-9.2C258,69.3,257.3,66.3,255.8,63.7z"/>
		<path fill="currentColor" d="M369.1,44.1v57.6h-14.7v-7.3c-1.9,2.5-4.3,4.5-7.3,5.9c-3,1.4-6.3,2.1-9.8,2.1c-4.5,0-8.5-1-12-2.9
			c-3.5-1.9-6.2-4.7-8.2-8.4c-2-3.7-3-8.1-3-13.3V44.1h14.6v31.7c0,4.6,1.1,8.1,3.4,10.6c2.3,2.5,5.4,3.7,9.4,3.7
			c4,0,7.2-1.2,9.5-3.7c2.3-2.5,3.4-6,3.4-10.6V44.1H369.1z"/>
		<path fill="currentColor" d="M437,45.8c3.3-1.7,7.1-2.6,11.3-2.6c4.9,0,9.4,1.2,13.4,3.6c4,2.4,7.1,5.9,9.5,10.4c2.3,4.5,3.5,9.7,3.5,15.6
			c0,5.9-1.2,11.1-3.5,15.7c-2.3,4.5-5.5,8.1-9.5,10.6s-8.4,3.7-13.4,3.7c-4.3,0-8.1-0.8-11.3-2.5c-3.2-1.7-5.8-3.9-7.8-6.6v8.2
			h-14.6v-77h14.6v27.8C431.1,49.8,433.7,47.5,437,45.8z M457.6,63.7c-1.4-2.5-3.3-4.5-5.6-5.8c-2.3-1.3-4.8-2-7.5-2
			c-2.6,0-5.1,0.7-7.4,2c-2.3,1.4-4.2,3.3-5.6,5.9s-2.1,5.6-2.1,9.1c0,3.5,0.7,6.5,2.1,9s3.3,4.5,5.6,5.9c2.3,1.4,4.8,2,7.4,2
			c2.7,0,5.2-0.7,7.5-2.1c2.3-1.4,4.2-3.4,5.6-5.9s2.1-5.6,2.1-9.2C459.7,69.3,459,66.3,457.6,63.7z"/>
		<path fill="currentColor" d="M516.4,100.1c-1.7-1.6-2.5-3.7-2.5-6.1c0-2.4,0.8-4.5,2.5-6.1c1.7-1.6,3.9-2.4,6.5-2.4c2.6,0,4.7,0.8,6.3,2.4
			c1.7,1.6,2.5,3.7,2.5,6.1c0,2.4-0.8,4.5-2.5,6.1c-1.7,1.6-3.8,2.4-6.3,2.4C520.2,102.5,518.1,101.7,516.4,100.1z"/>
	</g>
	<g>
		<g>
			<path class="st0" d="M582.6,100.2c-3.7-1.7-6.7-4-8.9-6.9c-2.2-2.9-3.4-6.1-3.6-9.7h14.7c0.3,2.2,1.4,4.1,3.3,5.5
				c1.9,1.5,4.3,2.2,7.1,2.2c2.8,0,4.9-0.6,6.5-1.7c1.6-1.1,2.3-2.5,2.3-4.3c0-1.9-0.9-3.3-2.9-4.2c-1.9-0.9-4.9-2-9.1-3.1
				c-4.3-1-7.8-2.1-10.6-3.2c-2.7-1.1-5.1-2.8-7.1-5.1s-3-5.4-3-9.3c0-3.2,0.9-6.1,2.8-8.7c1.8-2.6,4.5-4.7,7.9-6.2
				c3.4-1.5,7.5-2.3,12.1-2.3c6.9,0,12.3,1.7,16.4,5.2c4.1,3.4,6.4,8.1,6.8,13.9h-13.9c-0.2-2.3-1.2-4.1-2.9-5.5c-1.7-1.4-4-2-6.8-2
				c-2.6,0-4.7,0.5-6.1,1.5s-2.1,2.3-2.1,4.1c0,1.9,1,3.4,2.9,4.4c1.9,1,5,2,9,3.1c4.2,1,7.6,2.1,10.3,3.2c2.7,1.1,5,2.8,7,5.2
				c2,2.3,3,5.4,3.1,9.2c0,3.3-0.9,6.3-2.8,8.9c-1.8,2.6-4.5,4.7-7.9,6.2c-3.4,1.5-7.4,2.2-12,2.2
				C590.6,102.7,586.3,101.9,582.6,100.2z"/>
			<path class="st0" d="M683.5,45.8c3.3-1.8,7.1-2.7,11.3-2.7c4.9,0,9.4,1.2,13.4,3.6c4,2.4,7.1,5.9,9.5,10.4
				c2.3,4.5,3.5,9.7,3.5,15.6c0,5.9-1.2,11.1-3.5,15.7c-2.3,4.5-5.5,8.1-9.5,10.6s-8.4,3.7-13.4,3.7c-4.2,0-8-0.9-11.2-2.6
				c-3.2-1.7-5.8-3.9-7.9-6.6v35.7h-14.6V44.1h14.6v8.3C677.6,49.8,680.2,47.6,683.5,45.8z M704.1,63.7c-1.4-2.5-3.3-4.5-5.6-5.8
				c-2.3-1.3-4.8-2-7.5-2c-2.6,0-5.1,0.7-7.4,2c-2.3,1.4-4.2,3.3-5.6,5.9s-2.1,5.6-2.1,9.1c0,3.5,0.7,6.5,2.1,9s3.3,4.5,5.6,5.9
				c2.3,1.4,4.8,2,7.4,2c2.7,0,5.2-0.7,7.5-2.1c2.3-1.4,4.2-3.4,5.6-5.9c1.4-2.6,2.1-5.6,2.1-9.2C706.2,69.3,705.5,66.3,704.1,63.7z
				"/>
			<path class="st0" d="M762.6,57.2c2.3-4.5,5.5-8,9.5-10.4c4-2.4,8.4-3.6,13.4-3.6c4.3,0,8.1,0.9,11.3,2.6c3.2,1.7,5.8,3.9,7.8,6.6
				v-8.2h14.7v57.6h-14.7v-8.4c-1.9,2.7-4.5,4.9-7.8,6.7s-7.1,2.7-11.4,2.7c-4.9,0-9.3-1.3-13.3-3.7s-7.1-6-9.5-10.6
				c-2.3-4.5-3.5-9.8-3.5-15.7C759.2,66.9,760.3,61.7,762.6,57.2z M802.4,63.8c-1.4-2.5-3.3-4.5-5.6-5.8c-2.4-1.4-4.9-2-7.6-2
				s-5.2,0.7-7.5,2c-2.3,1.3-4.2,3.2-5.6,5.8c-1.4,2.5-2.1,5.5-2.1,9c0,3.5,0.7,6.5,2.1,9.1c1.4,2.6,3.3,4.6,5.6,6
				c2.3,1.4,4.8,2.1,7.4,2.1c2.7,0,5.2-0.7,7.6-2c2.4-1.4,4.2-3.3,5.6-5.8c1.4-2.5,2.1-5.6,2.1-9.1
				C804.5,69.4,803.8,66.4,802.4,63.8z"/>
			<path class="st0" d="M864.6,57.3c2.4-4.5,5.8-7.9,10.1-10.4c4.3-2.5,9.2-3.7,14.8-3.7c7.1,0,13.1,1.8,17.7,5.4
				c4.7,3.6,7.8,8.6,9.4,15h-15.7c-0.8-2.5-2.2-4.5-4.2-5.9c-2-1.4-4.4-2.1-7.3-2.1c-4.2,0-7.5,1.5-9.9,4.5c-2.4,3-3.6,7.3-3.6,12.9
				c0,5.5,1.2,9.7,3.6,12.7c2.4,3,5.7,4.5,9.9,4.5c5.9,0,9.7-2.6,11.6-7.9h15.7c-1.6,6.2-4.8,11.2-9.5,14.9
				c-4.7,3.7-10.6,5.5-17.7,5.5c-5.6,0-10.5-1.2-14.8-3.7c-4.3-2.5-7.7-5.9-10.1-10.4c-2.4-4.5-3.6-9.7-3.6-15.7
				C860.9,67,862.1,61.8,864.6,57.3z"/>
			<path class="st0" d="M1011.7,77.3h-42.1c0.3,4.2,1.8,7.4,4.4,9.8c2.6,2.4,5.7,3.5,9.5,3.5c5.4,0,9.3-2.3,11.6-7h15.7
				c-1.7,5.6-4.9,10.1-9.6,13.7c-4.7,3.6-10.5,5.4-17.4,5.4c-5.6,0-10.5-1.2-14.9-3.7c-4.4-2.5-7.8-5.9-10.3-10.5
				c-2.5-4.5-3.7-9.7-3.7-15.6c0-6,1.2-11.2,3.6-15.7s5.8-8,10.2-10.4c4.4-2.4,9.4-3.6,15.1-3.6c5.5,0,10.4,1.2,14.7,3.5
				c4.3,2.4,7.7,5.7,10.1,10s3.6,9.3,3.6,14.9C1012.1,73.8,1012,75.7,1011.7,77.3z M997,67.5c-0.1-3.7-1.4-6.7-4.1-9
				c-2.6-2.3-5.9-3.4-9.7-3.4c-3.6,0-6.6,1.1-9.1,3.3c-2.5,2.2-4,5.2-4.5,9.1H997z"/>
		</g>
	</g>
</g>
</svg>
