<?xml version="1.0" encoding="utf-8"?>
<!-- Generator: Adobe Illustrator 26.0.1, SVG Export Plug-In . SVG Version: 6.00 Build 0)  -->
<svg version="1.1" id="katman_1" xmlns="http://www.w3.org/2000/svg" xmlns:xlink="http://www.w3.org/1999/xlink" x="0px" y="0px"
	 viewBox="0 0 512 512" style="enable-background:new 0 0 512 512;" xml:space="preserve">
<style type="text/css">
	.st0{fill-rule:evenodd;clip-rule:evenodd;fill:url(#SVGID_1_);}
	.st1{fill:#FFFFFF;}
</style>
<g>
	
		<radialGradient id="SVGID_1_" cx="-241.5273" cy="159.9785" r="1" gradientTransform="matrix(512 0 0 512 123662 -81653)" gradientUnits="userSpaceOnUse">
		<stop  offset="0" style="stop-color:#5D9DF6"/>
		<stop  offset="1" style="stop-color:#006FFF"/>
	</radialGradient>
	<path class="st0" d="M256,0c141.4,0,256,114.6,256,256S397.4,512,256,512S0,397.4,0,256S114.6,0,256,0z"/>
	<path class="st1" d="M162.7,197.7c51.5-50.3,135.1-50.3,186.6,0l6.2,6.1c2.6,2.5,2.6,6.6,0,9.1l-21.2,20.7c-1.3,1.3-3.4,1.3-4.7,0
		l-8.5-8.3c-36-35.1-94.2-35.1-130.2,0l-9.1,8.9c-1.3,1.3-3.4,1.3-4.7,0l-21.2-20.7c-2.6-2.5-2.6-6.6,0-9.1L162.7,197.7z
		 M393.2,240.5l18.9,18.4c2.6,2.5,2.6,6.6,0,9.1L327,351.1c-2.6,2.5-6.8,2.5-9.3,0l0,0l-60.4-59c-0.6-0.6-1.7-0.6-2.3,0l0,0
		l-60.4,59c-2.6,2.5-6.8,2.5-9.3,0l0,0L99.9,268c-2.6-2.5-2.6-6.6,0-9.1l18.9-18.4c2.6-2.5,6.8-2.5,9.3,0l60.4,59
		c0.6,0.6,1.7,0.6,2.3,0l0,0l60.4-59c2.6-2.5,6.8-2.5,9.3,0l0,0l60.4,59c0.6,0.6,1.7,0.6,2.3,0l60.4-59
		C386.4,238,390.6,238,393.2,240.5L393.2,240.5z"/>
</g>
</svg>
