<?xml version="1.0" encoding="utf-8"?>
<!-- Generator: Adobe Illustrator 26.0.2, SVG Export Plug-In . SVG Version: 6.00 Build 0)  -->
<svg version="1.1" id="Layer_1" xmlns="http://www.w3.org/2000/svg" xmlns:xlink="http://www.w3.org/1999/xlink" x="0px" y="0px"
	 viewBox="0 0 758.2 153.9" style="enable-background:new 0 0 758.2 153.9;" xml:space="preserve">
<style type="text/css">
	.st0{fill:#07D6A0;}
	.st1{opacity:0.5;fill:#07D6A0;}
	.st2{opacity:0.7;fill:#07D6A0;}
</style>
<g>
	<g>
		<polyline class="st0" points="86.9,100.7 33.9,142.1 133.3,125.8 172.1,50.8 111.1,66.9 126.4,69.8 107.6,84.6 		"/>
		<polygon class="st1" points="66.9,116.3 17.8,113 33.9,142.1 		"/>
		<polygon class="st1" points="168.6,57.6 179.3,63.4 161.1,72.1 		"/>
	</g>
	<g>
		<polygon class="st0" points="67.9,53.9 48.5,46.3 48.3,25.5 67.6,33.1 		"/>
		<polygon class="st0" points="87.4,82.3 68.1,74.7 67.9,53.9 87.2,61.5 		"/>
		<polygon class="st2" points="87.6,103.1 68.3,95.5 68.1,74.7 87.4,82.3 		"/>
		<polygon class="st1" points="68.3,95.5 49,87.8 48.7,67.1 68.1,74.7 		"/>
		<polygon class="st1" points="48.7,67.1 29.4,59.4 29.2,38.7 48.5,46.3 		"/>
		<polygon class="st1" points="29.2,38.7 9.9,31 9.7,10.3 29,17.9 		"/>
		<polygon class="st2" points="68.1,74.7 48.7,67.1 48.5,46.3 67.9,53.9 		"/>
		<polygon class="st2" points="48.5,46.3 29.2,38.7 29,17.9 48.3,25.5 		"/>
		<polygon class="st0" points="67.7,33.1 106.3,48.4 106.9,110.7 87.6,103.1 87.2,61.5 67.9,53.9 		"/>
	</g>
</g>
<g>
	<g>
		<path d="M233.7,93h-1.1c-0.3,0.7-0.7,1.4-1.2,2s-1.1,1.2-1.9,1.7s-1.7,0.9-2.7,1.2c-1.1,0.3-2.3,0.4-3.8,0.4c-1.9,0-3.7-0.3-5.3-1
			c-1.6-0.7-3.1-1.7-4.3-3.1c-1.2-1.3-2.2-3-2.9-5c-0.7-2-1-4.2-1-6.7v-1c0-2.5,0.4-4.7,1.1-6.7s1.7-3.6,3-5
			c1.3-1.3,2.7-2.4,4.4-3.1c1.7-0.7,3.5-1.1,5.3-1.1c2.5,0,4.5,0.5,5.9,1.4c1.5,0.9,2.6,2.3,3.4,4h1.1V54h7.9v43.6h-7.9
			C233.7,97.5,233.7,93,233.7,93z M225.5,90.9c2.5,0,4.4-0.8,6-2.3c1.5-1.6,2.3-3.6,2.3-6.1v-0.7c0-2.5-0.8-4.6-2.3-6.1
			c-1.5-1.6-3.5-2.3-6-2.3s-4.4,0.8-6,2.3c-1.5,1.5-2.3,3.6-2.3,6.2v0.7c0,2.6,0.8,4.7,2.3,6.2C221,90.2,223,90.9,225.5,90.9z"/>
		<path d="M271.6,84.6c0,0.9,0.3,1.8,0.7,2.5c0.4,0.8,0.9,1.4,1.6,2c0.7,0.6,1.5,1,2.4,1.3s1.8,0.5,2.8,0.5c2,0,3.4-0.3,4.5-1
			c1-0.7,1.8-1.5,2.2-2.5l6.7,3.7c-0.4,0.8-0.9,1.6-1.6,2.5c-0.6,0.9-1.5,1.7-2.5,2.4c-1.1,0.7-2.3,1.3-3.9,1.7
			c-1.5,0.5-3.3,0.7-5.3,0.7c-2.3,0-4.4-0.4-6.4-1.1c-1.9-0.7-3.6-1.8-5-3.2c-1.4-1.4-2.5-3.1-3.2-5.2c-0.8-2-1.2-4.3-1.2-6.9v-0.4
			c0-2.4,0.4-4.5,1.2-6.5c0.8-2,1.9-3.6,3.3-5c1.4-1.4,3.1-2.4,5-3.2s3.9-1.2,6.1-1.2c2.7,0,4.9,0.5,6.9,1.4
			c1.9,0.9,3.5,2.1,4.7,3.6c1.2,1.4,2.2,3,2.7,4.7c0.6,1.7,0.9,3.4,0.9,5v4.2H271.6z M279,72.8c-2,0-3.6,0.5-4.9,1.5
			c-1.2,1-2.1,2.2-2.4,3.5h14.6c-0.2-1.5-1-2.7-2.3-3.6C282.6,73.3,281,72.8,279,72.8z"/>
		<path d="M323.9,110H316V66.6h7.9v4.5h1.1c0.8-1.7,2-3,3.6-4c1.6-0.9,3.6-1.4,6-1.4c1.8,0,3.6,0.4,5.2,1.1s3.1,1.7,4.3,3.1
			s2.2,3,2.9,5c0.7,2,1.1,4.2,1.1,6.7v1.1c0,2.5-0.4,4.8-1.1,6.7c-0.7,2-1.7,3.6-2.9,5c-1.2,1.4-2.6,2.4-4.3,3.1
			c-1.6,0.7-3.4,1-5.3,1c-1.4,0-2.6-0.1-3.7-0.4c-1-0.3-1.9-0.7-2.7-1.2c-0.8-0.5-1.4-1.1-1.9-1.7c-0.5-0.6-1-1.3-1.3-2h-1.1
			L323.9,110L323.9,110z M332.1,90.9c2.5,0,4.4-0.8,6-2.3c1.5-1.5,2.3-3.6,2.3-6.2v-0.7c0-2.6-0.8-4.7-2.3-6.2
			c-1.5-1.5-3.5-2.3-6-2.3s-4.4,0.8-6,2.3c-1.5,1.6-2.3,3.6-2.3,6.1v0.7c0,2.5,0.8,4.6,2.3,6.1C327.7,90.1,329.7,90.9,332.1,90.9z"
			/>
		<path d="M391.7,66.6h7.9v30.9h-7.9V93h-1.1c-1.4,3.6-4.3,5.4-8.9,5.4c-1.5,0-3-0.2-4.3-0.7c-1.3-0.5-2.5-1.3-3.5-2.3
			c-1-1-1.8-2.3-2.3-3.9c-0.6-1.6-0.8-3.4-0.8-5.5V66.6h7.9v17.7c0,2.2,0.5,3.9,1.6,5.1c1,1.2,2.6,1.8,4.7,1.8
			c2.4,0,4.1-0.8,5.2-2.3c1.1-1.5,1.7-3.6,1.7-6.2V66.6H391.7z"/>
		<path d="M430.3,97.5h-7.9V54h7.9v17.2h1.1c0.8-1.7,2-3,3.6-4c1.6-0.9,3.6-1.4,6-1.4c1.8,0,3.6,0.4,5.2,1.1
			c1.6,0.7,3.1,1.7,4.3,3.1s2.2,3,2.9,5c0.7,2,1.1,4.2,1.1,6.7v1.1c0,2.5-0.4,4.8-1.1,6.7c-0.7,2-1.7,3.6-2.9,5
			c-1.2,1.4-2.6,2.4-4.3,3.1c-1.6,0.7-3.4,1-5.3,1c-1.4,0-2.6-0.1-3.7-0.4c-1-0.3-1.9-0.7-2.7-1.2c-0.8-0.5-1.4-1.1-1.9-1.7
			s-1-1.3-1.3-2h-1.1L430.3,97.5L430.3,97.5z M438.5,90.9c2.5,0,4.4-0.8,6-2.3c1.5-1.5,2.3-3.6,2.3-6.2v-0.7c0-2.6-0.8-4.7-2.3-6.2
			c-1.5-1.5-3.5-2.3-6-2.3s-4.4,0.8-6,2.3c-1.5,1.6-2.3,3.6-2.3,6.1v0.7c0,2.5,0.8,4.6,2.3,6.1C434.1,90.1,436.1,90.9,438.5,90.9z"
			/>
		<path class="st0" d="M497,92.5c0,0.8-0.2,1.6-0.5,2.3c-0.3,0.7-0.7,1.4-1.3,1.9c-0.5,0.5-1.2,0.9-1.9,1.2
			c-0.7,0.3-1.5,0.5-2.3,0.5c-0.8,0-1.6-0.2-2.3-0.5c-0.7-0.3-1.3-0.7-1.9-1.2c-0.5-0.5-1-1.1-1.3-1.9c-0.3-0.8-0.3-1.5-0.3-2.3
			c0-0.8,0.2-1.6,0.5-2.3c0.3-0.7,0.7-1.3,1.3-1.9c0.5-0.5,1.2-0.9,1.9-1.2c0.7-0.3,1.5-0.5,2.3-0.5c0.8,0,1.5,0.2,2.3,0.5
			c0.7,0.3,1.4,0.7,1.9,1.2c0.5,0.5,1,1.1,1.3,1.9C496.9,90.9,497,91.6,497,92.5z"/>
	</g>
	<g>
		<path class="st0" d="M553.3,84.7c0,4.1-1.8,7.4-5.3,10c-0.1,0-0.1,0.1-0.1,0.1c-3.2,2.2-6.8,3.4-10.8,3.4c-2.6,0-5.1-0.5-7.6-1.6
			c-2.8-1.2-4.9-2.8-6.3-4.9c-0.5-0.7-0.7-1.4-0.7-2.1c0-1,0.4-1.8,1.1-2.5c0.7-0.7,1.6-1,2.5-1c0.5,0,1,0.1,1.4,0.4
			c0.5,0.2,0.9,0.5,1.2,0.9l0,0v0.1c0.2,0.3,0.6,0.6,1.1,1.1c1.8,1.6,4.2,2.5,7.2,2.5c2.3,0,4.4-0.6,6.2-1.8c0.5-0.3,1-0.7,1.4-1
			c0.4-0.3,0.7-0.7,0.9-1.1c0.2-0.4,0.4-0.8,0.5-1.2c0.1-0.4,0.1-0.8,0.1-1.3c0-0.9-0.2-1.8-0.7-2.5c-0.5-0.7-1.2-1.4-2.2-2.1
			c-1.8-1.2-3.9-1.7-6.2-1.8c-3.4,0-6.5-1-9.1-2.9c-1.5-1.1-2.7-2.4-3.4-3.8c-0.8-1.5-1.2-3-1.2-4.8c0-0.9,0.1-1.7,0.3-2.5
			c0.2-0.8,0.5-1.6,0.9-2.3c0.4-0.7,0.9-1.4,1.4-2s1.2-1.2,1.9-1.8c1.3-0.9,2.7-1.7,4.3-2.1c1.5-0.5,3.2-0.7,4.8-0.7
			c2.2,0,4.3,0.4,6.3,1.3c2.3,1,4.1,2.3,5.3,4.1c0.5,0.7,0.7,1.4,0.7,2.1c0,1-0.4,1.8-1.1,2.5c-0.7,0.7-1.6,1-2.5,1
			c-0.5,0-1-0.1-1.4-0.3s-0.9-0.5-1.3-0.9c-0.9-0.9-1.9-1.6-2.8-2c-1-0.4-2.1-0.6-3.2-0.6c-0.8,0-1.6,0.1-2.4,0.3
			c-0.7,0.2-1.5,0.5-2.1,0.9c-0.5,0.3-0.9,0.6-1.3,1c-0.3,0.3-0.5,0.7-0.6,1c-0.1,0.3-0.2,0.7-0.2,1.1c0,0.4,0.1,0.8,0.2,1.1
			c0.1,0.3,0.3,0.7,0.6,1c0.3,0.3,0.7,0.7,1.3,1c1.4,0.8,2.9,1.2,4.5,1.2c4,0,7.6,1.1,10.8,3.4c1.8,1.2,3.1,2.7,4,4.4
			C552.8,80.8,553.3,82.7,553.3,84.7z"/>
		<path class="st0" d="M598.6,59.4c2.6,2.6,3.9,5.8,3.9,9.5c0,3.7-1.3,6.9-3.9,9.5c-2.6,2.6-5.8,3.9-9.5,3.9h-7.6v12.2
			c0,1.1-0.3,1.9-1,2.6c-0.6,0.7-1.5,1-2.6,1c-0.2,0-0.5,0-0.7-0.1c-0.2,0-0.5-0.1-0.7-0.2c-0.2-0.1-0.4-0.2-0.6-0.3
			c-0.2-0.1-0.4-0.3-0.6-0.5c-0.4-0.3-0.6-0.7-0.7-1.2c-0.2-0.4-0.2-0.9-0.2-1.4V59.1c0-1,0.4-1.8,1.1-2.5c0.7-0.7,1.5-1.1,2.5-1.1
			h11.2C592.8,55.5,596,56.8,598.6,59.4z M595.5,68.9c0-1.7-0.6-3.2-1.9-4.4c-1.2-1.2-2.7-1.9-4.4-1.9h-7.6v12.6h7.6
			c0.9,0,1.7-0.2,2.4-0.4c0.7-0.3,1.4-0.8,2-1.4c0.6-0.6,1.1-1.3,1.4-2C595.3,70.7,595.5,69.8,595.5,68.9z"/>
		<path class="st0" d="M651.9,94.7c0,1-0.3,1.8-0.8,2.4c-0.7,0.7-1.6,1.1-2.8,1.1c-0.8,0-1.4-0.2-2-0.6c-0.6-0.4-1-1-1.3-1.8
			l-3.1-9.4h-10.7l-3.1,9.4c-0.3,0.8-0.7,1.4-1.3,1.8c-0.6,0.4-1.3,0.6-2,0.6c-1.2,0-2.1-0.3-2.8-1.1c-0.6-0.6-0.9-1.4-0.9-2.4
			c0-0.4,0.1-0.8,0.2-1.3L633,58.3c0.3-0.8,0.7-1.5,1.3-2c0.6-0.5,1.3-0.8,2.2-0.8c0.6,0,1.1,0.1,1.6,0.4c0.5,0.2,0.9,0.6,1.2,1
			c0.3,0.4,0.6,0.9,0.7,1.4l11.7,35.1c0.1,0.2,0.1,0.4,0.2,0.7C651.9,94.3,651.9,94.5,651.9,94.7z M639.4,79.2l-2.9-8.9l-2.9,8.9
			H639.4z"/>
		<path class="st0" d="M701.1,89.4c0,0.7-0.2,1.4-0.7,2.1c-0.7,1-1.5,1.9-2.4,2.7c-0.9,0.8-2,1.5-3.1,2.1c-2.3,1.2-4.7,1.9-7.1,1.9
			c-2.6,0-5-0.6-7.2-1.8c-2.2-1.2-4.1-3-5.8-5.3c-2.9-4.2-4.4-8.9-4.4-14.2c0-5.3,1.5-10,4.4-14.2c1.7-2.3,3.6-4.1,5.8-5.3
			c2.2-1.2,4.6-1.8,7.2-1.8c2.4,0,4.8,0.6,7.1,1.9c2.3,1.2,4.2,2.8,5.6,4.8c0.5,0.7,0.7,1.4,0.7,2.1c0,1-0.4,1.8-1.1,2.5
			c-0.7,0.7-1.6,1.1-2.5,1.1c-0.4,0-0.7-0.1-1.1-0.2c-0.3-0.1-0.7-0.3-1-0.6c-0.3-0.2-0.5-0.4-0.8-0.6c-0.2-0.2-0.4-0.5-0.5-0.7
			c-0.1-0.1-0.2-0.2-0.3-0.3c-1.8-1.8-3.8-2.7-6.1-2.7c-2,0-3.9,0.8-5.6,2.4c-0.5,0.5-1,1-1.5,1.6c-0.5,0.6-0.9,1.2-1.2,1.9
			c-0.4,0.7-0.7,1.4-1,2.1c-0.3,1-0.6,2-0.7,3c-0.2,1-0.2,2.1-0.2,3.2c0,2.2,0.3,4.3,1,6.2c0.4,1.1,0.9,2.2,1.5,3.1
			c0.6,0.9,1.3,1.8,2.1,2.5c0.9,0.8,1.8,1.4,2.7,1.8c0.9,0.4,1.9,0.6,2.9,0.6c2.2,0,4.2-0.9,6.1-2.8l0.1-0.1l0.1,0l0.1-0.1
			c0.1-0.2,0.2-0.5,0.4-0.7c0.1-0.2,0.3-0.3,0.4-0.4c0.1-0.1,0.3-0.2,0.5-0.4c0.8-0.5,1.5-0.8,2.1-0.8c0.2,0,0.5,0,0.7,0.1
			c0.2,0.1,0.5,0.1,0.7,0.2c0.2,0.1,0.4,0.2,0.6,0.3s0.4,0.3,0.5,0.4c0.4,0.3,0.6,0.7,0.8,1.2C701,88.5,701.1,88.9,701.1,89.4z"/>
		<path class="st0" d="M750.4,94.6c0,1.1-0.3,1.9-1,2.6c-0.6,0.7-1.5,1-2.6,1h-21.1c-1,0-1.8-0.3-2.5-1.1c-0.7-0.7-1.1-1.5-1.1-2.5
			V59.1c0-1,0.4-1.8,1.1-2.5c0.7-0.7,1.5-1.1,2.5-1.1h21.1c1.1,0,1.9,0.3,2.6,1c0.7,0.6,1,1.5,1,2.6c0,1.1-0.3,1.9-1,2.6
			c-0.6,0.7-1.5,1-2.6,1h-17.5v10.7h17.5c0.2,0,0.4,0,0.5,0c0.2,0,0.3,0.1,0.5,0.1c0.2,0,0.4,0.1,0.5,0.2c0.2,0.1,0.3,0.2,0.5,0.3
			c0.2,0.1,0.3,0.2,0.5,0.4c0.4,0.3,0.6,0.7,0.8,1.2c0.1,0.4,0.2,0.9,0.2,1.4c0,1.1-0.3,1.9-1,2.6c-0.6,0.7-1.5,1-2.6,1h-17.5V91
			h17.5c1.1,0,1.9,0.3,2.6,1C750.1,92.6,750.4,93.5,750.4,94.6z"/>
	</g>
</g>
</svg>
