<?xml version="1.0" encoding="utf-8"?>
<!-- Generator: Adobe Illustrator 26.0.1, SVG Export Plug-In . SVG Version: 6.00 Build 0)  -->
<svg version="1.1" id="Layer_1" xmlns="http://www.w3.org/2000/svg" xmlns:xlink="http://www.w3.org/1999/xlink" x="0px" y="0px"
	 viewBox="0 0 758.2 153.9" style="enable-background:new 0 0 758.2 153.9;" xml:space="preserve">
<style type="text/css">
	.st0{fill:#07D6A0;}
	.st1{opacity:0.5;fill:#07D6A0;enable-background:new    ;}
	.st2{opacity:0.7;fill:#07D6A0;enable-background:new    ;}
</style>
<g>
	<g>
		<polyline class="st0" points="86.9,100.7 33.9,142.1 133.3,125.8 172.1,50.8 111.1,66.9 126.4,69.8 107.6,84.6 		"/>
		<polygon class="st1" points="66.9,116.3 17.8,113 33.9,142.1 		"/>
		<polygon class="st1" points="168.6,57.6 179.3,63.4 161.1,72.1 		"/>
	</g>
	<g>
		<polygon class="st0" points="67.9,53.9 48.5,46.3 48.3,25.5 67.6,33.1 		"/>
		<polygon class="st0" points="87.4,82.3 68.1,74.7 67.9,53.9 87.2,61.5 		"/>
		<polygon class="st2" points="87.6,103.1 68.3,95.5 68.1,74.7 87.4,82.3 		"/>
		<polygon class="st1" points="68.3,95.5 49,87.8 48.7,67.1 68.1,74.7 		"/>
		<polygon class="st1" points="48.7,67.1 29.4,59.4 29.2,38.7 48.5,46.3 		"/>
		<polygon class="st1" points="29.2,38.7 9.9,31 9.7,10.3 29,17.9 		"/>
		<polygon class="st2" points="68.1,74.7 48.7,67.1 48.5,46.3 67.9,53.9 		"/>
		<polygon class="st2" points="48.5,46.3 29.2,38.7 29,17.9 48.3,25.5 		"/>
		<polygon class="st0" points="67.7,33.1 106.3,48.4 106.9,110.7 87.6,103.1 87.2,61.5 67.9,53.9 		"/>
	</g>
</g>
<g>
	<g>
		<path fill="currentColor" d="M209.9,72.8c1.3-2.4,3-4.3,5.2-5.6c2.2-1.3,4.6-2,7.3-2c2,0,4,0.4,5.8,1.3c1.8,0.9,3.3,2.1,4.4,3.5V55.2h8V97h-8v-4.6
			c-1,1.5-2.4,2.8-4.1,3.7c-1.8,0.9-3.8,1.4-6.2,1.4c-2.6,0-5-0.7-7.2-2c-2.2-1.4-3.9-3.3-5.2-5.7c-1.3-2.5-1.9-5.3-1.9-8.5
			C208,78.1,208.6,75.3,209.9,72.8z M231.5,76.4c-0.8-1.4-1.8-2.4-3-3.2c-1.3-0.7-2.7-1.1-4.1-1.1c-1.5,0-2.8,0.4-4.1,1.1
			c-1.2,0.7-2.2,1.8-3,3.1c-0.8,1.4-1.2,3-1.2,4.9c0,1.9,0.4,3.5,1.2,4.9c0.8,1.4,1.8,2.5,3,3.2c1.3,0.8,2.6,1.1,4,1.1
			c1.5,0,2.8-0.4,4.1-1.1c1.3-0.7,2.3-1.8,3-3.2c0.8-1.4,1.1-3,1.1-4.9C232.6,79.4,232.2,77.8,231.5,76.4z"/>
		<path fill="currentColor" d="M294.1,83.7h-22.9c0.2,2.3,1,4,2.4,5.3c1.4,1.3,3.1,1.9,5.1,1.9c2.9,0,5-1.3,6.3-3.8h8.5c-0.9,3-2.6,5.5-5.2,7.4
			c-2.6,1.9-5.7,2.9-9.4,2.9c-3,0-5.7-0.7-8.1-2c-2.4-1.3-4.3-3.2-5.6-5.7c-1.3-2.4-2-5.3-2-8.5c0-3.2,0.7-6.1,2-8.5
			s3.2-4.3,5.5-5.6c2.4-1.3,5.1-2,8.2-2c3,0,5.6,0.6,8,1.9c2.4,1.3,4.2,3.1,5.5,5.4s1.9,5.1,1.9,8.1
			C294.3,81.8,294.2,82.8,294.1,83.7z M286.1,78.4c0-2-0.8-3.7-2.2-4.9c-1.4-1.2-3.2-1.8-5.2-1.8c-2,0-3.6,0.6-4.9,1.8
			c-1.3,1.2-2.2,2.8-2.5,4.9H286.1z"/>
		<path fill="currentColor" d="M329.1,66.6c1.8-1,3.8-1.4,6.1-1.4c2.7,0,5.1,0.7,7.3,2c2.2,1.3,3.9,3.2,5.1,5.6c1.3,2.4,1.9,5.2,1.9,8.4
			c0,3.2-0.6,6-1.9,8.5s-3,4.4-5.1,5.7c-2.2,1.4-4.6,2-7.3,2c-2.3,0-4.3-0.5-6.1-1.4c-1.7-0.9-3.2-2.1-4.3-3.6v19.4H317V65.7h7.9
			v4.5C325.9,68.8,327.3,67.6,329.1,66.6z M340.2,76.3c-0.8-1.4-1.8-2.4-3-3.1c-1.3-0.7-2.6-1.1-4.1-1.1c-1.4,0-2.8,0.4-4,1.1
			c-1.3,0.7-2.3,1.8-3,3.2c-0.8,1.4-1.2,3-1.2,4.9c0,1.9,0.4,3.5,1.2,4.9c0.8,1.4,1.8,2.5,3,3.2c1.3,0.7,2.6,1.1,4,1.1
			c1.5,0,2.8-0.4,4.1-1.1c1.3-0.8,2.3-1.8,3-3.2c0.8-1.4,1.2-3,1.2-5C341.4,79.3,341,77.7,340.2,76.3z"/>
		<path fill="currentColor" d="M401.7,65.7V97h-8V93c-1,1.4-2.3,2.4-4,3.2c-1.6,0.8-3.4,1.2-5.3,1.2c-2.4,0-4.6-0.5-6.5-1.6c-1.9-1-3.4-2.6-4.4-4.6
			c-1.1-2-1.6-4.4-1.6-7.2V65.7h7.9v17.2c0,2.5,0.6,4.4,1.9,5.7c1.2,1.3,2.9,2,5.1,2c2.2,0,3.9-0.7,5.1-2c1.2-1.3,1.9-3.2,1.9-5.7
			V65.7H401.7z"/>
		<path fill="currentColor" d="M438.5,66.6c1.8-0.9,3.8-1.4,6.1-1.4c2.7,0,5.1,0.7,7.3,2c2.2,1.3,3.9,3.2,5.1,5.6c1.3,2.4,1.9,5.2,1.9,8.4
			c0,3.2-0.6,6-1.9,8.5c-1.3,2.5-3,4.4-5.1,5.7c-2.2,1.4-4.6,2-7.3,2c-2.3,0-4.4-0.5-6.1-1.4c-1.7-0.9-3.2-2.1-4.2-3.6V97h-7.9V55.2
			h7.9v15.1C435.3,68.8,436.7,67.6,438.5,66.6z M449.7,76.3c-0.8-1.4-1.8-2.4-3-3.1c-1.3-0.7-2.6-1.1-4.1-1.1c-1.4,0-2.8,0.4-4,1.1
			c-1.3,0.7-2.3,1.8-3,3.2s-1.2,3-1.2,4.9c0,1.9,0.4,3.5,1.2,4.9c0.8,1.4,1.8,2.5,3,3.2c1.3,0.7,2.6,1.1,4,1.1
			c1.5,0,2.8-0.4,4.1-1.1c1.3-0.8,2.3-1.8,3-3.2c0.8-1.4,1.2-3,1.2-5C450.8,79.3,450.4,77.7,449.7,76.3z"/>
		<path fill="currentColor" d="M481.5,96c-0.9-0.9-1.4-2-1.4-3.3c0-1.3,0.5-2.4,1.4-3.3c0.9-0.9,2.1-1.3,3.5-1.3c1.4,0,2.5,0.4,3.4,1.3
			c0.9,0.9,1.4,2,1.4,3.3c0,1.3-0.5,2.4-1.4,3.3c-0.9,0.9-2.1,1.3-3.4,1.3C483.6,97.4,482.5,96.9,481.5,96z"/>
	</g>
	<g>
		<g>
			<path class="st0" d="M517.5,96.1c-2-0.9-3.6-2.2-4.8-3.8c-1.2-1.6-1.8-3.3-1.9-5.2h8c0.2,1.2,0.7,2.2,1.8,3
				c1,0.8,2.3,1.2,3.9,1.2c1.5,0,2.7-0.3,3.5-0.9c0.8-0.6,1.3-1.4,1.3-2.3c0-1-0.5-1.8-1.6-2.3c-1-0.5-2.7-1.1-4.9-1.7
				c-2.3-0.6-4.2-1.1-5.7-1.7c-1.5-0.6-2.8-1.5-3.8-2.8c-1.1-1.2-1.6-2.9-1.6-5c0-1.7,0.5-3.3,1.5-4.7c1-1.4,2.4-2.6,4.3-3.4
				c1.9-0.8,4.1-1.2,6.6-1.2c3.7,0,6.7,0.9,8.9,2.8s3.4,4.4,3.7,7.5h-7.6c-0.1-1.2-0.6-2.2-1.6-3c-0.9-0.7-2.2-1.1-3.7-1.1
				c-1.4,0-2.5,0.3-3.3,0.8c-0.8,0.5-1.2,1.3-1.2,2.2c0,1.1,0.5,1.9,1.6,2.4c1.1,0.5,2.7,1.1,4.9,1.7c2.3,0.6,4.1,1.1,5.6,1.7
				c1.5,0.6,2.7,1.5,3.8,2.8c1.1,1.3,1.6,2.9,1.7,5c0,1.8-0.5,3.4-1.5,4.9s-2.4,2.5-4.3,3.4c-1.9,0.8-4,1.2-6.5,1.2
				C521.8,97.5,519.5,97,517.5,96.1z"/>
			<path class="st0" d="M572.2,66.6c1.8-1,3.8-1.4,6.1-1.4c2.7,0,5.1,0.7,7.3,2c2.2,1.3,3.9,3.2,5.1,5.6c1.3,2.4,1.9,5.2,1.9,8.4
				c0,3.2-0.6,6-1.9,8.5c-1.3,2.5-3,4.4-5.1,5.7c-2.2,1.4-4.6,2-7.3,2c-2.3,0-4.3-0.5-6.1-1.4c-1.7-0.9-3.2-2.1-4.3-3.6v19.4h-7.9
				V65.7h7.9v4.5C569,68.8,570.4,67.6,572.2,66.6z M583.3,76.3c-0.8-1.4-1.8-2.4-3-3.1c-1.3-0.7-2.6-1.1-4.1-1.1
				c-1.4,0-2.8,0.4-4,1.1c-1.3,0.7-2.3,1.8-3,3.2s-1.2,3-1.2,4.9c0,1.9,0.4,3.5,1.2,4.9c0.8,1.4,1.8,2.5,3,3.2
				c1.3,0.7,2.6,1.1,4,1.1c1.5,0,2.8-0.4,4.1-1.1c1.3-0.8,2.3-1.8,3-3.2s1.2-3,1.2-5C584.5,79.3,584.1,77.7,583.3,76.3z"/>
			<path class="st0" d="M615.1,72.8c1.3-2.4,3-4.3,5.1-5.6c2.2-1.3,4.6-2,7.3-2c2.3,0,4.4,0.5,6.1,1.4c1.7,0.9,3.2,2.1,4.2,3.6v-4.5
				h8V97h-8v-4.6c-1,1.5-2.4,2.7-4.2,3.6s-3.8,1.4-6.2,1.4c-2.6,0-5-0.7-7.2-2c-2.2-1.4-3.9-3.3-5.1-5.7c-1.3-2.5-1.9-5.3-1.9-8.5
				C613.2,78.1,613.9,75.3,615.1,72.8z M636.7,76.4c-0.8-1.4-1.8-2.4-3-3.2c-1.3-0.7-2.7-1.1-4.1-1.1s-2.8,0.4-4.1,1.1
				c-1.2,0.7-2.3,1.8-3,3.1c-0.8,1.4-1.2,3-1.2,4.9c0,1.9,0.4,3.5,1.2,4.9c0.8,1.4,1.8,2.5,3,3.2c1.3,0.8,2.6,1.1,4,1.1
				c1.5,0,2.8-0.4,4.1-1.1c1.3-0.7,2.3-1.8,3-3.2c0.8-1.4,1.1-3,1.1-4.9C637.8,79.4,637.4,77.8,636.7,76.4z"/>
			<path class="st0" d="M670.4,72.9c1.3-2.4,3.1-4.3,5.5-5.6c2.3-1.3,5-2,8-2c3.9,0,7.1,1,9.6,2.9c2.5,1.9,4.2,4.7,5.1,8.2h-8.5
				c-0.5-1.4-1.2-2.4-2.3-3.2c-1.1-0.8-2.4-1.2-4-1.2c-2.3,0-4,0.8-5.4,2.5c-1.3,1.6-2,4-2,7c0,3,0.7,5.3,2,6.9
				c1.3,1.6,3.1,2.5,5.4,2.5c3.2,0,5.3-1.4,6.3-4.3h8.5c-0.9,3.4-2.6,6.1-5.1,8.1c-2.6,2-5.8,3-9.6,3c-3,0-5.7-0.7-8-2
				c-2.3-1.3-4.2-3.2-5.5-5.6c-1.3-2.4-2-5.3-2-8.5S669.1,75.3,670.4,72.9z"/>
			<path class="st0" d="M750.2,83.7h-22.9c0.2,2.3,1,4,2.4,5.3c1.4,1.3,3.1,1.9,5.1,1.9c2.9,0,5-1.3,6.3-3.8h8.5
				c-0.9,3-2.6,5.5-5.2,7.4c-2.6,1.9-5.7,2.9-9.4,2.9c-3,0-5.7-0.7-8.1-2c-2.4-1.3-4.2-3.2-5.6-5.7c-1.3-2.4-2-5.3-2-8.5
				c0-3.2,0.7-6.1,2-8.5c1.3-2.4,3.2-4.3,5.5-5.6c2.4-1.3,5.1-2,8.2-2c3,0,5.6,0.6,8,1.9c2.3,1.3,4.2,3.1,5.5,5.4s1.9,5.1,1.9,8.1
				C750.4,81.8,750.3,82.8,750.2,83.7z M742.2,78.4c0-2-0.8-3.7-2.2-4.9c-1.4-1.2-3.2-1.8-5.2-1.8c-2,0-3.6,0.6-4.9,1.8
				c-1.3,1.2-2.2,2.8-2.5,4.9H742.2z"/>
		</g>
	</g>
</g>
</svg>
