<?xml version="1.0" encoding="utf-8"?>
<!-- Generator: Adobe Illustrator 26.0.1, SVG Export Plug-In . SVG Version: 6.00 Build 0)  -->
<svg version="1.1" id="Layer_1" xmlns="http://www.w3.org/2000/svg" xmlns:xlink="http://www.w3.org/1999/xlink" x="0px" y="0px"
	 viewBox="0 0 1024 1024" style="enable-background:new 0 0 1024 1024;" xml:space="preserve">
<style type="text/css">
	.st0{fill:#07D6A0;}
	.st1{opacity:0.5;fill:#07D6A0;enable-background:new    ;}
	.st2{opacity:0.7;}
	.st3{opacity:0.5;}
</style>
<g>
	<g>
		<g>
			<polyline class="st0" points="478.1,491.6 240.5,677.1 686.1,604.2 860,267.8 586.5,340.1 655.1,353.3 570.6,419.3 			"/>
			<polygon class="st1" points="388.3,561.7 168.1,546.8 240.5,677.1 			"/>
			<polygon class="st1" points="844.1,298.5 892.3,324.5 810.5,363.5 			"/>
		</g>
		<g>
			<polygon class="st0" points="392.5,281.8 305.9,247.6 304.9,154.5 391.6,188.7 			"/>
			<polygon class="st0" points="480.1,409.2 393.5,375 392.5,281.8 479.2,316 			"/>
			<g class="st2">
				<polygon class="st0" points="481.1,502.3 394.4,468.1 393.5,375 480.1,409.2 				"/>
			</g>
			<g class="st3">
				<polygon class="st0" points="394.4,468.1 307.8,433.9 306.9,340.7 393.5,375 				"/>
			</g>
			<g class="st3">
				<polygon class="st0" points="306.9,340.7 220.2,306.5 219.3,213.4 305.9,247.6 				"/>
			</g>
			<g class="st3">
				<polygon class="st0" points="219.3,213.4 132.6,179.2 131.7,86 218.3,120.3 				"/>
			</g>
			<g class="st2">
				<polygon class="st0" points="393.5,375 306.9,340.7 305.9,247.6 392.5,281.8 				"/>
			</g>
			<g class="st2">
				<polygon class="st0" points="305.9,247.6 219.3,213.4 218.3,120.3 304.9,154.5 				"/>
			</g>
			<polygon class="st0" points="391.7,188.7 564.9,257.1 567.8,536.5 481.2,502.3 479.3,316 392.6,281.8 			"/>
		</g>
	</g>
</g>
<g>
	<g>
		<path d="M41.1,869c2.2-4.3,5.2-7.6,9-9.9c3.8-2.3,8.1-3.5,12.7-3.5c3.6,0,6.9,0.8,10.2,2.3c3.2,1.6,5.8,3.6,7.7,6.2v-26h14v73h-14
			v-8.1c-1.7,2.7-4.1,4.9-7.2,6.5c-3.1,1.6-6.7,2.5-10.8,2.5c-4.6,0-8.8-1.2-12.6-3.6c-3.8-2.4-6.8-5.7-9-10
			c-2.2-4.3-3.3-9.3-3.3-14.8C37.8,878.2,38.9,873.3,41.1,869z M78.8,875.3c-1.3-2.4-3.1-4.2-5.3-5.5c-2.2-1.3-4.6-1.9-7.2-1.9
			c-2.6,0-4.9,0.6-7.1,1.9c-2.2,1.3-3.9,3.1-5.3,5.5c-1.4,2.4-2,5.2-2,8.5c0,3.3,0.7,6.2,2,8.6c1.3,2.5,3.1,4.4,5.3,5.7
			c2.2,1.3,4.6,2,7.1,2c2.6,0,5-0.6,7.2-1.9c2.2-1.3,4-3.1,5.3-5.5c1.3-2.4,2-5.3,2-8.6C80.8,880.6,80.2,877.7,78.8,875.3z"/>
		<path d="M188.3,888.1h-40c0.3,3.9,1.7,7,4.1,9.3c2.4,2.2,5.4,3.4,9,3.4c5.1,0,8.8-2.2,11-6.6h14.9c-1.6,5.3-4.6,9.6-9.1,13
			c-4.5,3.4-10,5.1-16.5,5.1c-5.3,0-10-1.2-14.2-3.5c-4.2-2.3-7.4-5.6-9.8-9.9c-2.3-4.3-3.5-9.2-3.5-14.8c0-5.7,1.2-10.6,3.5-14.9
			c2.3-4.3,5.5-7.6,9.7-9.9c4.1-2.3,8.9-3.5,14.3-3.5c5.2,0,9.8,1.1,14,3.4c4.1,2.2,7.3,5.4,9.6,9.5s3.4,8.8,3.4,14.2
			C188.7,884.7,188.5,886.5,188.3,888.1z M174.4,878.8c-0.1-3.5-1.3-6.4-3.8-8.5c-2.5-2.1-5.6-3.2-9.2-3.2c-3.4,0-6.3,1-8.6,3.1
			c-2.3,2.1-3.8,4.9-4.3,8.6H174.4z"/>
		<path d="M249.5,858.2c3.1-1.7,6.7-2.5,10.7-2.5c4.7,0,8.9,1.2,12.7,3.5c3.8,2.3,6.8,5.6,9,9.8c2.2,4.2,3.3,9.2,3.3,14.8
			c0,5.6-1.1,10.5-3.3,14.8s-5.2,7.6-9,10c-3.8,2.4-8,3.6-12.7,3.6c-4,0-7.5-0.8-10.6-2.5c-3.1-1.6-5.5-3.7-7.5-6.2v33.8h-13.8
			v-80.7h13.8v7.9C243.9,862,246.4,859.9,249.5,858.2z M269,875.2c-1.4-2.4-3.1-4.2-5.3-5.5c-2.2-1.2-4.6-1.9-7.2-1.9
			c-2.5,0-4.9,0.6-7.1,1.9c-2.2,1.3-4,3.1-5.3,5.6c-1.4,2.4-2,5.3-2,8.6c0,3.3,0.7,6.1,2,8.6c1.3,2.4,3.1,4.3,5.3,5.6
			c2.2,1.3,4.6,1.9,7.1,1.9c2.6,0,4.9-0.7,7.2-2c2.2-1.3,4-3.2,5.3-5.6c1.3-2.4,2-5.3,2-8.7C271,880.4,270.4,877.6,269,875.2z"/>
		<path d="M376.4,856.6v54.7h-13.9v-6.9c-1.8,2.4-4.1,4.2-7,5.6s-6,2-9.3,2c-4.3,0-8.1-0.9-11.3-2.7c-3.3-1.8-5.9-4.5-7.7-8
			c-1.9-3.5-2.8-7.7-2.8-12.6v-32.1h13.8v30.1c0,4.3,1.1,7.7,3.3,10c2.2,2.3,5.1,3.5,8.9,3.5c3.8,0,6.8-1.2,9-3.5
			c2.2-2.3,3.3-5.7,3.3-10v-30.1H376.4z"/>
		<path d="M440.8,858.2c3.1-1.6,6.7-2.5,10.7-2.5c4.7,0,8.9,1.2,12.7,3.5c3.8,2.3,6.8,5.6,9,9.8c2.2,4.2,3.3,9.2,3.3,14.8
			c0,5.6-1.1,10.5-3.3,14.8c-2.2,4.3-5.2,7.6-9,10c-3.8,2.4-8,3.6-12.7,3.6c-4.1,0-7.6-0.8-10.7-2.4c-3.1-1.6-5.5-3.7-7.4-6.3v7.8
			h-13.8v-73h13.8v26.3C435.2,862,437.7,859.8,440.8,858.2z M460.3,875.2c-1.3-2.4-3.1-4.2-5.3-5.5c-2.2-1.2-4.6-1.9-7.1-1.9
			c-2.5,0-4.9,0.6-7.1,1.9c-2.2,1.3-4,3.1-5.3,5.6c-1.3,2.4-2,5.3-2,8.6c0,3.3,0.7,6.1,2,8.6c1.3,2.4,3.1,4.3,5.3,5.6
			c2.2,1.3,4.5,1.9,7.1,1.9c2.6,0,4.9-0.7,7.1-2c2.2-1.3,4-3.2,5.3-5.6c1.3-2.4,2-5.3,2-8.7C462.4,880.4,461.7,877.6,460.3,875.2z"
			/>
		<path d="M516.1,909.6c-1.6-1.5-2.4-3.5-2.4-5.8s0.8-4.2,2.4-5.8c1.6-1.5,3.7-2.3,6.2-2.3c2.4,0,4.4,0.8,6,2.3s2.4,3.5,2.4,5.8
			s-0.8,4.2-2.4,5.8s-3.6,2.3-6,2.3C519.8,912,517.7,911.2,516.1,909.6z"/>
	</g>
	<g>
		<g>
			<path class="st0" d="M578.9,909.7c-3.6-1.6-6.4-3.8-8.4-6.6c-2.1-2.8-3.2-5.8-3.4-9.2H581c0.3,2.1,1.3,3.9,3.1,5.2
				c1.8,1.4,4.1,2.1,6.8,2.1c2.6,0,4.7-0.5,6.2-1.6c1.5-1,2.2-2.4,2.2-4c0-1.8-0.9-3.1-2.7-4c-1.8-0.9-4.7-1.9-8.6-2.9
				c-4.1-1-7.4-2-10-3.1c-2.6-1.1-4.8-2.7-6.7-4.8c-1.9-2.2-2.8-5.1-2.8-8.8c0-3,0.9-5.8,2.6-8.3c1.7-2.5,4.2-4.5,7.5-5.9
				c3.3-1.4,7.1-2.2,11.5-2.2c6.5,0,11.7,1.6,15.6,4.9c3.9,3.3,6,7.6,6.4,13.2h-13.2c-0.2-2.2-1.1-3.9-2.7-5.2
				c-1.6-1.3-3.8-1.9-6.5-1.9c-2.5,0-4.4,0.5-5.8,1.4c-1.3,0.9-2,2.2-2,3.8c0,1.8,0.9,3.2,2.8,4.2c1.8,1,4.7,1.9,8.6,2.9
				c3.9,1,7.2,2,9.8,3.1c2.6,1.1,4.8,2.7,6.7,4.9c1.9,2.2,2.8,5.1,2.9,8.7c0,3.2-0.9,6-2.6,8.5c-1.7,2.5-4.2,4.5-7.5,5.9
				c-3.3,1.4-7.1,2.1-11.4,2.1C586.5,912.2,582.4,911.3,578.9,909.7z"/>
			<path class="st0" d="M674.6,858.2c3.1-1.7,6.7-2.5,10.7-2.5c4.7,0,8.9,1.2,12.7,3.5c3.8,2.3,6.8,5.6,9,9.8
				c2.2,4.2,3.3,9.2,3.3,14.8c0,5.6-1.1,10.5-3.3,14.8c-2.2,4.3-5.2,7.6-9,10c-3.8,2.4-8,3.6-12.7,3.6c-4,0-7.5-0.8-10.6-2.5
				c-3.1-1.6-5.5-3.7-7.4-6.2v33.8h-13.8v-80.7h13.8v7.9C669,862,671.4,859.9,674.6,858.2z M694.1,875.2c-1.3-2.4-3.1-4.2-5.3-5.5
				c-2.2-1.2-4.6-1.9-7.1-1.9c-2.5,0-4.9,0.6-7.1,1.9c-2.2,1.3-4,3.1-5.3,5.6c-1.3,2.4-2,5.3-2,8.6c0,3.3,0.7,6.1,2,8.6
				c1.3,2.4,3.1,4.3,5.3,5.6c2.2,1.3,4.5,1.9,7.1,1.9c2.6,0,4.9-0.7,7.1-2c2.2-1.3,4-3.2,5.3-5.6s2-5.3,2-8.7
				C696.1,880.4,695.4,877.6,694.1,875.2z"/>
			<path class="st0" d="M749.6,869c2.2-4.3,5.2-7.6,9-9.9c3.8-2.3,8-3.5,12.7-3.5c4.1,0,7.6,0.8,10.7,2.5c3.1,1.6,5.5,3.7,7.4,6.2
				v-7.8h13.9v54.7h-13.9v-8c-1.8,2.6-4.2,4.7-7.4,6.4c-3.1,1.7-6.7,2.5-10.8,2.5c-4.6,0-8.8-1.2-12.6-3.6c-3.8-2.4-6.8-5.7-9-10
				c-2.2-4.3-3.3-9.3-3.3-14.8C746.3,878.2,747.4,873.3,749.6,869z M787.4,875.3c-1.3-2.4-3.1-4.2-5.3-5.5c-2.2-1.3-4.6-1.9-7.2-1.9
				s-4.9,0.6-7.1,1.9c-2.2,1.3-3.9,3.1-5.3,5.5c-1.3,2.4-2,5.2-2,8.5c0,3.3,0.7,6.2,2,8.6c1.3,2.5,3.1,4.4,5.3,5.7
				c2.2,1.3,4.5,2,7.1,2c2.6,0,5-0.6,7.2-1.9c2.2-1.3,4-3.1,5.3-5.5c1.3-2.4,2-5.3,2-8.6C789.4,880.6,788.7,877.7,787.4,875.3z"/>
			<path class="st0" d="M846.3,869.1c2.3-4.2,5.5-7.5,9.6-9.9c4.1-2.3,8.7-3.5,14-3.5c6.8,0,12.4,1.7,16.8,5.1
				c4.4,3.4,7.4,8.1,8.9,14.3h-14.9c-0.8-2.4-2.1-4.2-4-5.6c-1.9-1.3-4.2-2-7-2c-3.9,0-7.1,1.4-9.4,4.3s-3.5,6.9-3.5,12.2
				c0,5.2,1.2,9.2,3.5,12.1c2.3,2.9,5.4,4.3,9.4,4.3c5.6,0,9.2-2.5,11-7.5h14.9c-1.5,5.9-4.5,10.6-9,14.1s-10.1,5.2-16.8,5.2
				c-5.3,0-9.9-1.2-14-3.5c-4.1-2.3-7.3-5.6-9.6-9.9c-2.3-4.2-3.5-9.2-3.5-14.8C842.8,878.3,844,873.3,846.3,869.1z"/>
			<path class="st0" d="M985.8,888.1h-40c0.3,3.9,1.7,7,4.1,9.3c2.4,2.2,5.4,3.4,9,3.4c5.1,0,8.8-2.2,11-6.6h14.9
				c-1.6,5.3-4.6,9.6-9.1,13s-10,5.1-16.5,5.1c-5.3,0-10-1.2-14.2-3.5c-4.2-2.3-7.4-5.6-9.8-9.9c-2.3-4.3-3.5-9.2-3.5-14.8
				c0-5.7,1.2-10.6,3.5-14.9c2.3-4.3,5.5-7.6,9.7-9.9c4.1-2.3,8.9-3.5,14.3-3.5c5.2,0,9.9,1.1,14,3.4c4.1,2.2,7.3,5.4,9.6,9.5
				s3.4,8.8,3.4,14.2C986.2,884.7,986.1,886.5,985.8,888.1z M971.9,878.8c-0.1-3.5-1.4-6.4-3.9-8.5c-2.5-2.1-5.6-3.2-9.2-3.2
				c-3.4,0-6.3,1-8.6,3.1c-2.3,2.1-3.8,4.9-4.3,8.6H971.9z"/>
		</g>
	</g>
</g>
</svg>
