<?xml version="1.0" encoding="utf-8"?>
<!-- Generator: Adobe Illustrator 26.0.2, SVG Export Plug-In . SVG Version: 6.00 Build 0)  -->
<svg version="1.1" id="Layer_1" xmlns="http://www.w3.org/2000/svg" xmlns:xlink="http://www.w3.org/1999/xlink" x="0px" y="0px"
	 viewBox="0 0 1024 1024" style="enable-background:new 0 0 1024 1024;" xml:space="preserve">
<style type="text/css">
	.st0{fill:#07D6A0;}
	.st1{opacity:0.5;fill:#07D6A0;}
	.st2{opacity:0.7;}
	.st3{opacity:0.5;}
</style>
<g>
	<g>
		<g>
			<polyline class="st0" points="478.1,491.6 240.5,677.1 686.1,604.2 860,267.8 586.5,340.1 655.1,353.3 570.6,419.3 			"/>
			<polygon class="st1" points="388.3,561.7 168.1,546.8 240.5,677.1 			"/>
			<polygon class="st1" points="844.1,298.5 892.3,324.5 810.5,363.5 			"/>
		</g>
		<g>
			<polygon class="st0" points="392.5,281.8 305.9,247.6 304.9,154.5 391.6,188.7 			"/>
			<polygon class="st0" points="480.1,409.2 393.5,375 392.5,281.8 479.2,316 			"/>
			<g class="st2">
				<polygon class="st0" points="481.1,502.3 394.4,468.1 393.5,375 480.1,409.2 				"/>
			</g>
			<g class="st3">
				<polygon class="st0" points="394.4,468.1 307.8,433.9 306.9,340.7 393.5,375 				"/>
			</g>
			<g class="st3">
				<polygon class="st0" points="306.9,340.7 220.2,306.5 219.3,213.4 305.9,247.6 				"/>
			</g>
			<g class="st3">
				<polygon class="st0" points="219.3,213.4 132.6,179.2 131.7,86 218.3,120.3 				"/>
			</g>
			<g class="st2">
				<polygon class="st0" points="393.5,375 306.9,340.7 305.9,247.6 392.5,281.8 				"/>
			</g>
			<g class="st2">
				<polygon class="st0" points="305.9,247.6 219.3,213.4 218.3,120.3 304.9,154.5 				"/>
			</g>
			<polygon class="st0" points="391.7,188.7 564.9,257.1 567.8,536.5 481.2,502.3 479.3,316 392.6,281.8 			"/>
		</g>
	</g>
	<g>
		<g>
			<path d="M80.2,910.1h-1.9c-0.5,1.2-1.2,2.5-2.1,3.5c-0.9,1.1-1.9,2.1-3.3,3c-1.4,0.9-3,1.6-4.7,2.1c-1.9,0.5-4,0.7-6.7,0.7
				c-3.3,0-6.5-0.5-9.3-1.8c-2.8-1.2-5.4-3-7.5-5.4c-2.1-2.3-3.9-5.3-5.1-8.8s-1.8-7.4-1.8-11.7v-1.8c0-4.4,0.7-8.2,1.9-11.7
				s3-6.3,5.3-8.8c2.3-2.3,4.7-4.2,7.7-5.4s6.1-1.9,9.3-1.9c4.4,0,7.9,0.9,10.3,2.5c2.6,1.6,4.6,4,6,7h1.9v-30h13.8V918H80.2
				C80.2,918,80.2,910.1,80.2,910.1z M65.9,906.4c4.4,0,7.7-1.4,10.5-4c2.6-2.8,4-6.3,4-10.7v-1.2c0-4.4-1.4-8.1-4-10.7
				c-2.6-2.8-6.1-4-10.5-4s-7.7,1.4-10.5,4c-2.6,2.6-4,6.3-4,10.9v1.2c0,4.6,1.4,8.2,4,10.9C58,905.2,61.5,906.4,65.9,906.4z"/>
			<path d="M146.6,895.4c0,1.6,0.5,3.2,1.2,4.4c0.7,1.4,1.6,2.5,2.8,3.5c1.2,1.1,2.6,1.8,4.2,2.3s3.2,0.9,4.9,0.9
				c3.5,0,6-0.5,7.9-1.8c1.8-1.2,3.2-2.6,3.9-4.4l11.7,6.5c-0.7,1.4-1.6,2.8-2.8,4.4c-1.1,1.6-2.6,3-4.4,4.2c-1.9,1.2-4,2.3-6.8,3
				c-2.6,0.9-5.8,1.2-9.3,1.2c-4,0-7.7-0.7-11.2-1.9c-3.3-1.2-6.3-3.2-8.8-5.6c-2.5-2.5-4.4-5.4-5.6-9.1c-1.4-3.5-2.1-7.5-2.1-12.1
				v-0.7c0-4.2,0.7-7.9,2.1-11.4c1.4-3.5,3.3-6.3,5.8-8.8s5.4-4.2,8.8-5.6c3.3-1.4,6.8-2.1,10.7-2.1c4.7,0,8.6,0.9,12.1,2.5
				c3.3,1.6,6.1,3.7,8.2,6.3c2.1,2.5,3.9,5.3,4.7,8.2c1.1,3,1.6,6,1.6,8.8v7.4H146.6z M159.6,874.7c-3.5,0-6.3,0.9-8.6,2.6
				c-2.1,1.8-3.7,3.9-4.2,6.1h25.6c-0.4-2.6-1.8-4.7-4-6.3C165.9,875.6,163.1,874.7,159.6,874.7z"/>
			<path d="M238.4,939.9h-13.8v-76h13.8v7.9h1.9c1.4-3,3.5-5.3,6.3-7c2.8-1.6,6.3-2.5,10.5-2.5c3.2,0,6.3,0.7,9.1,1.9
				c2.8,1.2,5.4,3,7.5,5.4s3.9,5.3,5.1,8.8c1.2,3.5,1.9,7.4,1.9,11.7v1.9c0,4.4-0.7,8.4-1.9,11.7c-1.2,3.5-3,6.3-5.1,8.8
				c-2.1,2.5-4.6,4.2-7.5,5.4c-2.8,1.2-6,1.8-9.3,1.8c-2.5,0-4.6-0.2-6.5-0.7c-1.8-0.5-3.3-1.2-4.7-2.1c-1.4-0.9-2.5-1.9-3.3-3
				c-0.9-1.1-1.8-2.3-2.3-3.5h-1.9v29.4H238.4z M252.8,906.4c4.4,0,7.7-1.4,10.5-4c2.6-2.6,4-6.3,4-10.9v-1.2c0-4.6-1.4-8.2-4-10.9
				s-6.1-4-10.5-4s-7.7,1.4-10.5,4c-2.6,2.8-4,6.3-4,10.7v1.2c0,4.4,1.4,8.1,4,10.7C245.1,905,248.6,906.4,252.8,906.4z"/>
			<path d="M357.2,863.8H371V918h-13.8v-7.9h-1.9c-2.5,6.3-7.5,9.5-15.6,9.5c-2.6,0-5.3-0.4-7.5-1.2c-2.3-0.9-4.4-2.3-6.1-4
				s-3.2-4-4-6.8c-1.1-2.8-1.4-6-1.4-9.6v-34h13.8v31c0,3.9,0.9,6.8,2.8,8.9c1.8,2.1,4.6,3.2,8.2,3.2c4.2,0,7.2-1.4,9.1-4
				c1.9-2.6,3-6.3,3-10.9v-28.2H357.2z"/>
			<path d="M425,918h-13.8v-76.4H425v30.1h1.9c1.4-3,3.5-5.3,6.3-7c2.8-1.6,6.3-2.5,10.5-2.5c3.2,0,6.3,0.7,9.1,1.9
				c2.8,1.2,5.4,3,7.5,5.4s3.9,5.3,5.1,8.8c1.2,3.5,1.9,7.4,1.9,11.7v1.9c0,4.4-0.7,8.4-1.9,11.7c-1.2,3.5-3,6.3-5.1,8.8
				c-2.1,2.5-4.6,4.2-7.5,5.4c-2.8,1.2-6,1.8-9.3,1.8c-2.5,0-4.6-0.2-6.5-0.7c-1.8-0.5-3.3-1.2-4.7-2.1c-1.4-0.9-2.5-1.9-3.3-3
				c-0.9-1.1-1.8-2.3-2.3-3.5h-1.9v7.5H425z M439.3,906.4c4.4,0,7.7-1.4,10.5-4c2.6-2.6,4-6.3,4-10.9v-1.2c0-4.6-1.4-8.2-4-10.9
				c-2.6-2.6-6.1-4-10.5-4c-4.4,0-7.7,1.4-10.5,4c-2.6,2.8-4,6.3-4,10.7v1.2c0,4.4,1.4,8.1,4,10.7
				C431.6,905,435.1,906.4,439.3,906.4z"/>
			<path class="st0" d="M541.8,909.2c0,1.4-0.4,2.8-0.9,4s-1.2,2.5-2.3,3.3c-0.9,0.9-2.1,1.6-3.3,2.1c-1.2,0.5-2.6,0.9-4,0.9
				c-1.4,0-2.8-0.4-4-0.9c-1.2-0.5-2.3-1.2-3.3-2.1c-0.9-0.9-1.8-1.9-2.3-3.3s-0.5-2.6-0.5-4s0.4-2.8,0.9-4s1.2-2.3,2.3-3.3
				c0.9-0.9,2.1-1.6,3.3-2.1c1.2-0.5,2.6-0.9,4-0.9c1.4,0,2.6,0.4,4,0.9c1.2,0.5,2.5,1.2,3.3,2.1c0.9,0.9,1.8,1.9,2.3,3.3
				C541.6,906.4,541.8,907.6,541.8,909.2z"/>
		</g>
		<g>
			<path class="st0" d="M640.6,895.5c0,7.1-3.1,12.9-9.3,17.5c-0.1,0.1-0.2,0.1-0.2,0.1c-5.5,3.9-11.9,5.9-19,5.9
				c-4.6,0-9-0.9-13.3-2.7c-4.9-2.1-8.5-4.9-11-8.5c-0.8-1.2-1.2-2.5-1.2-3.7c0-1.7,0.6-3.2,1.9-4.4c1.3-1.2,2.7-1.8,4.4-1.8
				c0.9,0,1.7,0.2,2.5,0.6c0.8,0.4,1.5,1,2.2,1.6l0,0v0.1c0.4,0.5,1,1.1,1.9,1.9c3.2,2.9,7.4,4.3,12.6,4.3c4,0,7.6-1,10.9-3.1
				c0.9-0.6,1.7-1.2,2.4-1.8c0.7-0.6,1.2-1.2,1.6-1.9c0.4-0.7,0.7-1.4,0.9-2.1c0.2-0.7,0.3-1.4,0.3-2.2c0-1.6-0.4-3.1-1.2-4.4
				c-0.8-1.3-2.1-2.5-3.9-3.6c-3.2-2-6.9-3.1-10.9-3.1c-6,0-11.3-1.7-16-5c-2.6-1.9-4.6-4.1-6-6.7c-1.4-2.6-2-5.3-2-8.4
				c0-1.5,0.2-3,0.5-4.4c0.4-1.4,0.9-2.7,1.5-4c0.7-1.3,1.5-2.4,2.5-3.6c1-1.1,2.2-2.1,3.4-3.1c2.3-1.7,4.8-2.9,7.5-3.8
				c2.7-0.9,5.5-1.3,8.5-1.3c3.8,0,7.6,0.8,11.1,2.3c4.1,1.7,7.2,4.1,9.3,7.2c0.9,1.2,1.3,2.4,1.3,3.7c0,1.7-0.7,3.2-2,4.4
				c-1.3,1.2-2.7,1.8-4.4,1.8c-0.9,0-1.7-0.2-2.5-0.6s-1.5-1-2.2-1.7c-1.6-1.6-3.3-2.8-5-3.5c-1.7-0.8-3.6-1.1-5.6-1.1
				c-1.5,0-2.9,0.2-4.2,0.5c-1.3,0.4-2.6,0.9-3.8,1.6c-0.9,0.6-1.6,1.1-2.2,1.7c-0.6,0.6-0.9,1.2-1.1,1.8c-0.2,0.6-0.3,1.3-0.3,2
				c0,0.7,0.1,1.4,0.3,2c0.2,0.6,0.6,1.2,1.1,1.8c0.6,0.6,1.3,1.2,2.2,1.7c2.4,1.4,5.1,2.2,7.9,2.2c7.1,0,13.4,2,19,5.9
				c3.1,2.2,5.5,4.8,7.1,7.8C639.8,888.7,640.6,892,640.6,895.5z"/>
			<path class="st0" d="M720.1,851.2c4.6,4.6,6.9,10.1,6.9,16.6s-2.3,12-6.9,16.6c-4.6,4.6-10.1,6.9-16.6,6.9h-13.3v21.5
				c0,1.9-0.6,3.4-1.7,4.5c-1.1,1.2-2.6,1.7-4.6,1.7c-0.4,0-0.8,0-1.2-0.1s-0.8-0.2-1.2-0.3c-0.4-0.1-0.8-0.3-1.1-0.5
				c-0.4-0.2-0.7-0.5-1-0.8c-0.6-0.6-1.1-1.3-1.3-2.1c-0.3-0.8-0.4-1.6-0.4-2.5v-62.3c0-1.7,0.6-3.1,1.8-4.4
				c1.2-1.2,2.7-1.8,4.4-1.8h19.6C709.9,844.3,715.5,846.6,720.1,851.2z M714.5,867.9c0-3-1.1-5.6-3.3-7.8c-2.2-2.2-4.8-3.3-7.8-3.3
				h-13.3v22.2h13.3c1.6,0,3-0.3,4.2-0.8c1.2-0.5,2.4-1.4,3.6-2.5c1.1-1.1,2-2.3,2.5-3.6C714.3,870.9,714.5,869.5,714.5,867.9z"/>
			<path class="st0" d="M813.4,913c0,1.7-0.5,3.1-1.5,4.1c-1.2,1.3-2.8,1.9-4.9,1.9c-1.3,0-2.5-0.3-3.6-1c-1.1-0.7-1.8-1.8-2.3-3.2
				l-5.5-16.5H777l-5.5,16.5c-0.5,1.4-1.2,2.5-2.3,3.2c-1,0.7-2.2,1-3.6,1c-2.1,0-3.7-0.6-4.8-1.8c-1-1.1-1.5-2.5-1.5-4.2
				c0-0.7,0.1-1.5,0.4-2.3l20.6-61.6c0.5-1.4,1.2-2.6,2.3-3.5c1.1-0.9,2.3-1.4,3.8-1.4c1,0,1.9,0.2,2.7,0.6c0.8,0.4,1.5,1,2.1,1.7
				c0.6,0.7,1,1.5,1.3,2.5l20.6,61.6c0.1,0.4,0.2,0.8,0.3,1.2C813.4,912.3,813.4,912.7,813.4,913z M791.5,885.9l-5.2-15.6l-5.2,15.6
				H791.5z"/>
			<path class="st0" d="M899.8,903.7c0,1.2-0.4,2.5-1.3,3.7c-1.2,1.8-2.6,3.3-4.3,4.7c-1.6,1.4-3.5,2.6-5.5,3.6
				c-4.1,2.2-8.2,3.2-12.5,3.3c-4.6,0-8.8-1.1-12.7-3.2c-3.8-2.1-7.2-5.2-10.2-9.3c-5.2-7.3-7.7-15.6-7.7-24.9
				c0-9.3,2.6-17.6,7.7-24.9c2.9-4.1,6.3-7.2,10.2-9.3c3.8-2.1,8.1-3.2,12.7-3.2c4.2,0,8.4,1.1,12.5,3.3c4.1,2.2,7.3,4.9,9.7,8.4
				c0.9,1.3,1.3,2.5,1.3,3.7c0,1.7-0.6,3.2-1.9,4.4c-1.3,1.2-2.7,1.9-4.4,1.9c-0.7,0-1.3-0.1-1.9-0.4c-0.6-0.2-1.2-0.6-1.8-1
				c-0.5-0.3-0.9-0.7-1.3-1.1c-0.4-0.4-0.7-0.9-0.9-1.3c-0.2-0.2-0.3-0.4-0.6-0.6c-3.2-3.2-6.7-4.8-10.6-4.8c-3.6,0-6.9,1.4-9.9,4.2
				c-0.9,0.9-1.8,1.8-2.6,2.8c-0.8,1-1.5,2.1-2.1,3.3c-0.6,1.2-1.2,2.4-1.7,3.7c-0.6,1.7-1,3.4-1.3,5.3s-0.4,3.7-0.4,5.6
				c0,3.9,0.6,7.5,1.8,10.9c0.7,2,1.6,3.8,2.7,5.4c1.1,1.6,2.3,3.1,3.7,4.4c1.5,1.4,3.1,2.5,4.8,3.2c1.6,0.7,3.4,1,5.2,1
				c3.8,0,7.4-1.6,10.7-4.8l0.1-0.1l0.1,0l0.2-0.2c0.2-0.4,0.4-0.8,0.7-1.1c0.3-0.3,0.5-0.6,0.7-0.8c0.2-0.2,0.5-0.4,0.9-0.7
				c1.4-0.9,2.6-1.4,3.7-1.4c0.4,0,0.8,0,1.2,0.1c0.4,0.1,0.8,0.2,1.2,0.4c0.4,0.2,0.8,0.3,1.1,0.6s0.7,0.5,0.9,0.8
				c0.6,0.6,1.1,1.3,1.4,2C899.6,902.1,899.8,902.9,899.8,903.7z"/>
			<path class="st0" d="M986.2,912.8c0,1.9-0.6,3.4-1.7,4.5c-1.1,1.2-2.6,1.7-4.5,1.7H943c-1.7,0-3.2-0.6-4.4-1.8
				c-1.2-1.2-1.8-2.7-1.8-4.4v-62.3c0-1.7,0.6-3.1,1.8-4.4c1.2-1.2,2.7-1.8,4.4-1.8h36.9c1.9,0,3.4,0.6,4.5,1.7
				c1.2,1.1,1.7,2.6,1.7,4.5c0,1.9-0.6,3.4-1.7,4.5c-1.1,1.2-2.6,1.7-4.5,1.7h-30.6v18.7h30.6c0.3,0,0.7,0,0.9,0.1
				c0.3,0,0.6,0.1,0.9,0.2c0.3,0.1,0.7,0.2,0.9,0.3c0.3,0.1,0.6,0.3,0.9,0.5c0.3,0.2,0.6,0.4,0.8,0.7c0.6,0.6,1.1,1.3,1.3,2.1
				c0.3,0.8,0.4,1.6,0.4,2.5c0,1.9-0.6,3.4-1.7,4.5c-1.1,1.2-2.6,1.7-4.5,1.7h-30.6v18.7h30.6c1.9,0,3.4,0.6,4.5,1.7
				C985.6,909.4,986.2,910.9,986.2,912.8z"/>
		</g>
	</g>
</g>
</svg>
