<?xml version="1.0" encoding="utf-8"?>
<!-- Generator: Adobe Illustrator 26.0.2, SVG Export Plug-In . SVG Version: 6.00 Build 0)  -->
<svg version="1.1" id="Layer_1" xmlns="http://www.w3.org/2000/svg" xmlns:xlink="http://www.w3.org/1999/xlink" x="0px" y="0px"
	 viewBox="0 0 1024 153.9" style="enable-background:new 0 0 1024 153.9;" xml:space="preserve">
<style type="text/css">
	.st0{fill:#07D6A0;}
</style>
<g>
	<g>
		<path d="M56.6,97.4h-2c-0.6,1.3-1.3,2.6-2.2,3.7c-0.9,1.1-2,2.2-3.5,3.1c-1.5,0.9-3.1,1.7-5,2.2c-2,0.6-4.2,0.7-7,0.7
			c-3.5,0-6.8-0.6-9.8-1.8s-5.7-3.1-7.9-5.7c-2.2-2.4-4.1-5.5-5.4-9.2s-1.8-7.8-1.8-12.4v-1.8c0-4.6,0.7-8.7,2-12.4
			c1.3-3.7,3.1-6.7,5.5-9.2c2.4-2.4,5-4.4,8.1-5.7c3.1-1.3,6.5-2,9.8-2c4.6,0,8.3,0.9,10.9,2.6c2.8,1.7,4.8,4.2,6.3,7.4h2V25.2h14.6
			v80.6H56.6C56.6,105.7,56.6,97.4,56.6,97.4z M41.5,93.5c4.6,0,8.1-1.5,11.1-4.2c2.8-3,4.2-6.7,4.2-11.3v-1.3
			c0-4.6-1.5-8.5-4.2-11.3c-2.8-3-6.5-4.2-11.1-4.2s-8.1,1.5-11.1,4.2c-2.8,2.8-4.2,6.7-4.2,11.5v1.3c0,4.8,1.5,8.7,4.2,11.5
			C33.2,92.2,36.9,93.5,41.5,93.5z"/>
		<path d="M126.6,81.9c0,1.7,0.6,3.3,1.3,4.6c0.7,1.5,1.7,2.6,3,3.7c1.3,1.1,2.8,1.8,4.4,2.4c1.7,0.6,3.3,0.9,5.2,0.9
			c3.7,0,6.3-0.6,8.3-1.8c1.8-1.3,3.3-2.8,4.1-4.6l12.4,6.8c-0.7,1.5-1.7,3-3,4.6c-1.1,1.7-2.8,3.1-4.6,4.4c-2,1.3-4.2,2.4-7.2,3.1
			c-2.8,0.9-6.1,1.3-9.8,1.3c-4.2,0-8.1-0.7-11.8-2c-3.5-1.3-6.7-3.3-9.2-5.9c-2.6-2.6-4.6-5.7-5.9-9.6c-1.5-3.7-2.2-7.9-2.2-12.7
			v-0.7c0-4.4,0.7-8.3,2.2-12c1.5-3.7,3.5-6.7,6.1-9.2c2.6-2.6,5.7-4.4,9.2-5.9c3.5-1.5,7.2-2.2,11.3-2.2c5,0,9.1,0.9,12.7,2.6
			c3.5,1.7,6.5,3.9,8.7,6.7c2.2,2.6,4.1,5.5,5,8.7c1.1,3.1,1.7,6.3,1.7,9.2v7.8H126.6z M140.3,60.1c-3.7,0-6.7,0.9-9.1,2.8
			c-2.2,1.8-3.9,4.1-4.4,6.5h27c-0.4-2.8-1.8-5-4.2-6.7C147,61,144,60.1,140.3,60.1z"/>
		<path d="M223.5,128.8h-14.6V48.6h14.6v8.3h2c1.5-3.1,3.7-5.5,6.7-7.4c3-1.7,6.7-2.6,11.1-2.6c3.3,0,6.7,0.7,9.6,2
			c3,1.3,5.7,3.1,7.9,5.7c2.2,2.6,4.1,5.5,5.4,9.2c1.3,3.7,2,7.8,2,12.4v2c0,4.6-0.7,8.9-2,12.4c-1.3,3.7-3.1,6.7-5.4,9.2
			c-2.2,2.6-4.8,4.4-7.9,5.7c-3,1.3-6.3,1.8-9.8,1.8c-2.6,0-4.8-0.2-6.8-0.7c-1.8-0.6-3.5-1.3-5-2.2c-1.5-0.9-2.6-2-3.5-3.1
			c-0.9-1.1-1.8-2.4-2.4-3.7h-2v31H223.5z M238.6,93.5c4.6,0,8.1-1.5,11.1-4.2c2.8-2.8,4.2-6.7,4.2-11.5v-1.3
			c0-4.8-1.5-8.7-4.2-11.5c-2.8-2.8-6.5-4.2-11.1-4.2s-8.1,1.5-11.1,4.2c-2.8,3-4.2,6.7-4.2,11.3v1.3c0,4.6,1.5,8.5,4.2,11.3
			C230.5,92,234.2,93.5,238.6,93.5z"/>
		<path d="M348.7,48.6h14.6v57.1h-14.6v-8.3h-2c-2.6,6.7-7.9,10-16.4,10c-2.8,0-5.5-0.4-7.9-1.3s-4.6-2.4-6.5-4.2
			c-1.8-1.8-3.3-4.2-4.2-7.2c-1.1-3-1.5-6.3-1.5-10.2V48.6h14.6v32.7c0,4.1,0.9,7.2,3,9.4c1.8,2.2,4.8,3.3,8.7,3.3
			c4.4,0,7.6-1.5,9.6-4.2c2-2.8,3.1-6.7,3.1-11.5V48.6H348.7z"/>
		<path d="M420.2,105.7h-14.6V25.2h14.6v31.8h2c1.5-3.1,3.7-5.5,6.7-7.4c3-1.7,6.7-2.6,11.1-2.6c3.3,0,6.7,0.7,9.6,2
			c3,1.3,5.7,3.1,7.9,5.7s4.1,5.5,5.4,9.2c1.3,3.7,2,7.8,2,12.4v2c0,4.6-0.7,8.9-2,12.4c-1.3,3.7-3.1,6.7-5.4,9.2
			c-2.2,2.6-4.8,4.4-7.9,5.7c-3,1.3-6.3,1.8-9.8,1.8c-2.6,0-4.8-0.2-6.8-0.7c-1.8-0.6-3.5-1.3-5-2.2c-1.5-0.9-2.6-2-3.5-3.1
			c-0.9-1.1-1.8-2.4-2.4-3.7h-2v7.9H420.2z M435.4,93.5c4.6,0,8.1-1.5,11.1-4.2c2.8-2.8,4.2-6.7,4.2-11.5v-1.3
			c0-4.8-1.5-8.7-4.2-11.5s-6.5-4.2-11.1-4.2s-8.1,1.5-11.1,4.2c-2.8,3-4.2,6.7-4.2,11.3v1.3c0,4.6,1.5,8.5,4.2,11.3
			C427.2,92,430.9,93.5,435.4,93.5z"/>
		<path class="st0" d="M543.4,96.5c0,1.5-0.4,3-0.9,4.2c-0.6,1.3-1.3,2.6-2.4,3.5c-0.9,0.9-2.2,1.7-3.5,2.2
			c-1.3,0.6-2.8,0.9-4.2,0.9s-3-0.4-4.2-0.9s-2.4-1.3-3.5-2.2c-0.9-0.9-1.8-2-2.4-3.5c-0.6-1.5-0.6-2.8-0.6-4.2c0-1.5,0.4-3,0.9-4.2
			c0.6-1.3,1.3-2.4,2.4-3.5c0.9-0.9,2.2-1.7,3.5-2.2c1.3-0.6,2.8-0.9,4.2-0.9s2.8,0.4,4.2,0.9c1.3,0.6,2.6,1.3,3.5,2.2
			c0.9,0.9,1.8,2,2.4,3.5C543.3,93.5,543.4,94.8,543.4,96.5z"/>
	</g>
	<g>
		<path class="st0" d="M647.6,82c0,7.5-3.3,13.6-9.8,18.5c-0.1,0.1-0.2,0.1-0.2,0.1c-5.8,4.2-12.5,6.2-20,6.2c-4.8,0-9.5-1-14.1-2.9
			c-5.1-2.2-9-5.2-11.6-9c-0.8-1.3-1.3-2.6-1.3-3.9c0-1.8,0.7-3.4,2-4.7c1.3-1.3,2.9-1.9,4.7-1.9c0.9,0,1.8,0.2,2.7,0.7
			c0.8,0.4,1.6,1,2.3,1.7l0,0.1v0.1c0.4,0.5,1.1,1.2,2,2c3.4,3,7.8,4.5,13.2,4.6c4.2,0,8-1.1,11.5-3.3c1-0.6,1.8-1.2,2.5-1.9
			s1.3-1.3,1.7-2c0.4-0.7,0.7-1.5,0.9-2.2c0.2-0.7,0.3-1.5,0.3-2.4c0-1.7-0.4-3.3-1.3-4.6s-2.2-2.6-4.1-3.8
			c-3.4-2.1-7.2-3.2-11.5-3.3c-6.3,0-12-1.8-16.9-5.3c-2.8-2-4.9-4.4-6.3-7.1c-1.4-2.7-2.1-5.6-2.1-8.8c0-1.6,0.2-3.1,0.6-4.6
			c0.4-1.5,0.9-2.9,1.6-4.2c0.7-1.3,1.6-2.6,2.7-3.8c1.1-1.2,2.3-2.3,3.6-3.3c2.4-1.8,5.1-3.1,7.9-4c2.9-0.9,5.8-1.3,9-1.3
			c4.1,0,8,0.8,11.7,2.4c4.3,1.8,7.5,4.3,9.8,7.5c0.9,1.3,1.4,2.6,1.4,3.9c0,1.8-0.7,3.4-2.1,4.7c-1.3,1.3-2.9,1.9-4.6,1.9
			c-0.9,0-1.8-0.2-2.6-0.6s-1.6-1-2.3-1.8c-1.7-1.7-3.4-2.9-5.3-3.7c-1.8-0.8-3.8-1.2-5.9-1.2c-1.6,0-3,0.2-4.4,0.6
			c-1.4,0.4-2.7,1-4,1.7c-0.9,0.6-1.7,1.2-2.3,1.8c-0.6,0.6-1,1.2-1.2,1.9c-0.2,0.6-0.3,1.3-0.3,2.1c0,0.7,0.1,1.4,0.3,2.1
			c0.2,0.6,0.6,1.3,1.2,1.9s1.4,1.2,2.3,1.8c2.6,1.5,5.4,2.3,8.4,2.3c7.5,0,14.1,2.1,20,6.2c3.3,2.3,5.8,5,7.5,8.2
			C646.8,74.8,647.6,78.3,647.6,82z"/>
		<path class="st0" d="M731.4,35.3c4.8,4.8,7.3,10.7,7.3,17.5s-2.4,12.7-7.3,17.5c-4.8,4.9-10.7,7.3-17.5,7.3h-14.1v22.6
			c0,2-0.6,3.6-1.8,4.8c-1.2,1.2-2.8,1.8-4.8,1.8c-0.4,0-0.8,0-1.3-0.1s-0.8-0.2-1.2-0.3c-0.4-0.1-0.8-0.3-1.2-0.5
			c-0.4-0.2-0.7-0.5-1.1-0.9c-0.7-0.6-1.1-1.3-1.4-2.2c-0.3-0.8-0.4-1.7-0.4-2.6V34.6c0-1.8,0.6-3.3,1.9-4.6
			c1.3-1.3,2.8-1.9,4.6-1.9h20.7C720.7,28,726.6,30.4,731.4,35.3z M725.6,52.8c0-3.2-1.1-5.9-3.5-8.2c-2.3-2.3-5-3.5-8.2-3.5h-14.1
			v23.4h14.1c1.7,0,3.2-0.3,4.5-0.8c1.3-0.6,2.5-1.4,3.7-2.6c1.2-1.2,2.1-2.5,2.6-3.7C725.3,56,725.6,54.5,725.6,52.8z"/>
		<path class="st0" d="M829.9,100.5c0,1.8-0.5,3.3-1.6,4.4c-1.2,1.3-3,2-5.2,2c-1.4,0-2.6-0.4-3.7-1.1c-1.1-0.7-1.9-1.9-2.4-3.4
			L811.2,85h-19.8l-5.8,17.4c-0.5,1.5-1.3,2.6-2.4,3.4c-1.1,0.7-2.3,1.1-3.7,1.1c-2.2,0-3.9-0.6-5.1-1.9c-1.1-1.1-1.6-2.6-1.6-4.4
			c0-0.7,0.1-1.5,0.4-2.4l21.7-65c0.5-1.5,1.3-2.7,2.4-3.7c1.1-1,2.5-1.4,4-1.4c1,0,2,0.2,2.9,0.7c0.9,0.5,1.6,1.1,2.2,1.8
			c0.6,0.7,1,1.6,1.4,2.6l21.7,65c0.1,0.4,0.2,0.8,0.3,1.2C829.9,99.7,829.9,100.1,829.9,100.5z M806.8,71.8l-5.5-16.5l-5.4,16.5
			H806.8z"/>
		<path class="st0" d="M921,90.7c0,1.3-0.5,2.6-1.4,3.9c-1.3,1.9-2.8,3.5-4.5,5c-1.7,1.5-3.7,2.7-5.8,3.8c-4.3,2.3-8.7,3.4-13.1,3.5
			c-4.9,0-9.3-1.1-13.4-3.4s-7.6-5.5-10.7-9.8c-5.5-7.7-8.2-16.4-8.2-26.2c0-9.8,2.7-18.5,8.2-26.2c3.1-4.3,6.6-7.6,10.7-9.8
			c4.1-2.3,8.5-3.4,13.4-3.4c4.5,0,8.9,1.1,13.1,3.5c4.3,2.3,7.7,5.2,10.3,8.8c0.9,1.3,1.4,2.6,1.4,3.9c0,1.8-0.7,3.3-2,4.7
			c-1.3,1.3-2.9,2-4.7,2c-0.7,0-1.4-0.1-2-0.4c-0.6-0.3-1.3-0.6-1.9-1c-0.5-0.4-1-0.8-1.4-1.2c-0.4-0.4-0.7-0.9-1-1.4
			c-0.2-0.2-0.4-0.4-0.6-0.6c-3.4-3.4-7.1-5.1-11.2-5.1c-3.8,0-7.2,1.5-10.4,4.4c-1,0.9-1.9,1.9-2.7,3c-0.8,1.1-1.6,2.2-2.3,3.5
			c-0.7,1.2-1.3,2.5-1.8,3.9c-0.6,1.8-1.1,3.6-1.4,5.6c-0.3,1.9-0.5,3.9-0.5,5.9c0,4.1,0.6,8,1.8,11.5c0.7,2.1,1.7,4,2.8,5.7
			c1.1,1.7,2.5,3.3,3.9,4.6c1.6,1.5,3.3,2.6,5,3.4c1.7,0.7,3.5,1.1,5.5,1.1c4.1,0,7.8-1.7,11.2-5.1l0.1-0.1l0.1-0.1l0.2-0.2
			c0.2-0.5,0.4-0.9,0.7-1.2c0.3-0.4,0.5-0.6,0.8-0.8c0.2-0.2,0.6-0.4,1-0.7c1.5-1,2.8-1.5,3.9-1.5c0.4,0,0.9,0.1,1.3,0.2
			c0.4,0.1,0.9,0.2,1.3,0.4c0.4,0.2,0.8,0.4,1.2,0.6s0.7,0.5,1,0.8c0.6,0.6,1.1,1.3,1.5,2.1C920.8,88.9,921,89.8,921,90.7z"/>
		<path class="st0" d="M1012.1,100.3c0,2-0.6,3.6-1.8,4.8c-1.2,1.2-2.8,1.8-4.8,1.8h-38.9c-1.8,0-3.3-0.6-4.6-1.9
			c-1.3-1.3-1.9-2.8-1.9-4.6V34.6c0-1.8,0.6-3.3,1.9-4.6c1.3-1.3,2.8-1.9,4.6-1.9h38.9c2,0,3.6,0.6,4.8,1.8c1.2,1.2,1.8,2.8,1.8,4.8
			c0,2-0.6,3.6-1.8,4.8c-1.2,1.2-2.8,1.8-4.8,1.8h-32.3v19.7h32.3c0.4,0,0.7,0,1,0.1c0.3,0.1,0.6,0.1,1,0.2c0.4,0.1,0.7,0.2,1,0.3
			c0.3,0.1,0.6,0.3,0.9,0.5c0.3,0.2,0.6,0.5,0.8,0.8c0.7,0.6,1.1,1.3,1.4,2.2c0.3,0.8,0.4,1.7,0.4,2.6c0,2-0.6,3.6-1.8,4.8
			c-1.2,1.2-2.8,1.8-4.8,1.8h-32.3v19.7h32.3c2,0,3.6,0.6,4.8,1.8C1011.5,96.7,1012.1,98.2,1012.1,100.3z"/>
	</g>
</g>
</svg>
