<?xml version="1.0" encoding="utf-8"?>
<!-- Generator: Adobe Illustrator 26.0.2, SVG Export Plug-In . SVG Version: 6.00 Build 0)  -->
<svg version="1.1" xmlns="http://www.w3.org/2000/svg" xmlns:xlink="http://www.w3.org/1999/xlink" x="0px" y="0px"
	 viewBox="0 0 1024 1024" style="enable-background:new 0 0 1024 1024;" xml:space="preserve">
<style type="text/css">
	.st0{fill:#07D6A0;}
	.st1{opacity:0.5;fill:#07D6A0;}
	.st2{opacity:0.7;}
	.st3{opacity:0.5;}
</style>
<g id="Layer_1">
</g>
<g id="Layer_2">
	<g>
		<g>
			<polyline class="st0" points="469.6,650.2 170.6,883.8 731.4,792 950.2,368.6 606.1,459.7 692.4,476.2 586,559.3 			"/>
			<polygon class="st1" points="356.6,738.5 79.5,719.8 170.6,883.8 			"/>
			<polygon class="st1" points="930.2,407.3 990.9,440.1 887.9,489.1 			"/>
		</g>
		<g>
			<polygon class="st0" points="361.9,386.3 252.9,343.2 251.7,226.1 360.7,269.1 			"/>
			<polygon class="st0" points="472.2,546.6 363.1,503.5 361.9,386.3 471,429.4 			"/>
			<g class="st2">
				<polygon class="st0" points="473.4,663.8 364.3,620.7 363.1,503.5 472.2,546.6 				"/>
			</g>
			<g class="st3">
				<polygon class="st0" points="364.3,620.7 255.3,577.6 254.1,460.4 363.1,503.5 				"/>
			</g>
			<g class="st3">
				<polygon class="st0" points="254.1,460.4 145.1,417.4 143.9,300.2 252.9,343.2 				"/>
			</g>
			<g class="st3">
				<polygon class="st0" points="143.9,300.2 34.9,257.1 33.7,139.9 142.7,183 				"/>
			</g>
			<g class="st2">
				<polygon class="st0" points="363.1,503.5 254.1,460.4 252.9,343.2 361.9,386.3 				"/>
			</g>
			<g class="st2">
				<polygon class="st0" points="252.9,343.2 143.9,300.2 142.7,183 251.7,226.1 				"/>
			</g>
			<polygon class="st0" points="360.9,269.1 578.9,355.2 582.5,706.8 473.5,663.8 471.1,429.4 362.1,386.3 			"/>
		</g>
	</g>
</g>
</svg>
